<?xml version="1.0" encoding="utf-8"?>
<!-- Generator: Adobe Illustrator 16.0.0, SVG Export Plug-In . SVG Version: 6.00 Build 0)  -->
<!DOCTYPE svg PUBLIC "-//W3C//DTD SVG 1.1//EN" "http://www.w3.org/Graphics/SVG/1.1/DTD/svg11.dtd">
<svg version="1.1" id="Layer_1" xmlns="http://www.w3.org/2000/svg" xmlns:xlink="http://www.w3.org/1999/xlink" x="0px" y="0px"
	 width="205.992px" height="210.113px" viewBox="0 0 205.992 210.113" enable-background="new 0 0 205.992 210.113"
	 xml:space="preserve">
<linearGradient id="SVGID_1_" gradientUnits="userSpaceOnUse" x1="55.2949" y1="189.1528" x2="154.3112" y2="17.6517">
	<stop  offset="0" style="stop-color:#3D2F89"/>
	<stop  offset="1" style="stop-color:#A4237A"/>
</linearGradient>
<circle fill="url(#SVGID_1_)" cx="104.803" cy="103.402" r="99"/>
<g>
	<g>
		<path fill="#FFFFFF" d="M91.318,153.971c-1.381,0-2.5-1.119-2.5-2.5V54.223c0-1.381,1.119-2.5,2.5-2.5s2.5,1.119,2.5,2.5v97.248
			C93.818,152.852,92.699,153.971,91.318,153.971z"/>
	</g>
	<g>
		<path fill="#FFFFFF" d="M78.818,143.902c-1.381,0-2.5-1.119-2.5-2.5v-74c0-1.381,1.119-2.5,2.5-2.5s2.5,1.119,2.5,2.5v74
			C81.318,142.783,80.199,143.902,78.818,143.902z"/>
	</g>
	<g>
		<path fill="#FFFFFF" d="M67.318,121.777c-1.381,0-2.5-1.119-2.5-2.5v-29.75c0-1.381,1.119-2.5,2.5-2.5s2.5,1.119,2.5,2.5v29.75
			C69.818,120.658,68.699,121.777,67.318,121.777z"/>
	</g>
	<g>
		<path fill="#FFFFFF" d="M104.318,147.025c-1.381,0-2.5-1.119-2.5-2.5V63.389c0-1.381,1.119-2.5,2.5-2.5s2.5,1.119,2.5,2.5v81.136
			C106.817,145.906,105.699,147.025,104.318,147.025z"/>
	</g>
	<g>
		<path fill="#FFFFFF" d="M129.317,147.902c-1.381,0-2.5-1.119-2.5-2.5v-74c0-1.381,1.119-2.5,2.5-2.5s2.5,1.119,2.5,2.5v74
			C131.817,146.783,130.698,147.902,129.317,147.902z"/>
	</g>
	<g>
		<path fill="#FFFFFF" d="M140.817,132.902c-1.381,0-2.5-1.119-2.5-2.5V86.235c0-1.381,1.119-2.5,2.5-2.5s2.5,1.119,2.5,2.5v44.167
			C143.317,131.783,142.198,132.902,140.817,132.902z"/>
	</g>
	<g>
		<path fill="#FFFFFF" d="M116.817,155.081c-1.381,0-2.5-1.119-2.5-2.5V55.333c0-1.381,1.119-2.5,2.5-2.5s2.5,1.119,2.5,2.5v97.248
			C119.317,153.961,118.198,155.081,116.817,155.081z"/>
	</g>
	<g>
		<path fill="#FFFFFF" d="M166.288,109.402h-10.971c-1.381,0-2.5-1.119-2.5-2.5s1.119-2.5,2.5-2.5h10.971c1.381,0,2.5,1.119,2.5,2.5
			S167.669,109.402,166.288,109.402z"/>
	</g>
	<g>
		<path fill="#FFFFFF" d="M54.289,109.402H43.318c-1.381,0-2.5-1.119-2.5-2.5s1.119-2.5,2.5-2.5h10.971c1.381,0,2.5,1.119,2.5,2.5
			S55.669,109.402,54.289,109.402z"/>
	</g>
</g>
</svg>
