<?xml version="1.0" encoding="utf-8"?>
<!-- Generator: Adobe Illustrator 16.0.0, SVG Export Plug-In . SVG Version: 6.00 Build 0)  -->
<!DOCTYPE svg PUBLIC "-//W3C//DTD SVG 1.1//EN" "http://www.w3.org/Graphics/SVG/1.1/DTD/svg11.dtd">
<svg version="1.1" id="Layer_1" xmlns="http://www.w3.org/2000/svg" xmlns:xlink="http://www.w3.org/1999/xlink" x="0px" y="0px"
	 width="403px" height="166px" viewBox="0 0 403 166" enable-background="new 0 0 403 166" xml:space="preserve">
<text transform="matrix(1 0 0 1 12.4526 142)" fill="#FFFFFF" font-family="'Lato-Black'" font-size="70">neritsounds</text>
<g>
	<g>
		<path fill="#FFFFFF" d="M193.849,78.374c-0.857,0-1.551-0.695-1.551-1.552V16.466c0-0.857,0.694-1.552,1.551-1.552
			s1.552,0.694,1.552,1.552v60.356C195.4,77.679,194.706,78.374,193.849,78.374z"/>
	</g>
	<g>
		<path fill="#FFFFFF" d="M186.091,72.124c-0.857,0-1.552-0.694-1.552-1.552V24.645c0-0.856,0.695-1.551,1.552-1.551
			s1.551,0.694,1.551,1.551v45.928C187.642,71.43,186.948,72.124,186.091,72.124z"/>
	</g>
	<g>
		<path fill="#FFFFFF" d="M178.954,58.393c-0.857,0-1.552-0.694-1.552-1.552V38.377c0-0.857,0.695-1.552,1.552-1.552
			s1.552,0.694,1.552,1.552v18.464C180.505,57.698,179.811,58.393,178.954,58.393z"/>
	</g>
	<g>
		<path fill="#FFFFFF" d="M201.917,74.062c-0.857,0-1.552-0.694-1.552-1.552V22.155c0-0.858,0.695-1.552,1.552-1.552
			s1.551,0.693,1.551,1.552v50.355C203.469,73.368,202.774,74.062,201.917,74.062z"/>
	</g>
	<g>
		<path fill="#FFFFFF" d="M217.433,74.606c-0.857,0-1.552-0.694-1.552-1.552V27.127c0-0.856,0.695-1.551,1.552-1.551
			s1.552,0.694,1.552,1.551v45.928C218.985,73.912,218.29,74.606,217.433,74.606z"/>
	</g>
	<g>
		<path fill="#FFFFFF" d="M224.57,65.297c-0.857,0-1.552-0.694-1.552-1.551V36.333c0-0.856,0.695-1.551,1.552-1.551
			s1.552,0.694,1.552,1.551v27.413C226.122,64.603,225.427,65.297,224.57,65.297z"/>
	</g>
	<g>
		<path fill="#FFFFFF" d="M209.675,79.062c-0.857,0-1.552-0.695-1.552-1.552V17.154c0-0.857,0.695-1.552,1.552-1.552
			s1.552,0.694,1.552,1.552v60.356C211.227,78.367,210.532,79.062,209.675,79.062z"/>
	</g>
	<g>
		<path fill="#FFFFFF" d="M240.378,50.712h-6.809c-0.857,0-1.552-0.694-1.552-1.552c0-0.856,0.694-1.552,1.552-1.552h6.809
			c0.857,0,1.552,0.695,1.552,1.552C241.93,50.018,241.235,50.712,240.378,50.712z"/>
	</g>
	<g>
		<path fill="#FFFFFF" d="M170.867,50.712h-6.809c-0.857,0-1.552-0.694-1.552-1.552c0-0.856,0.695-1.552,1.552-1.552h6.809
			c0.857,0,1.552,0.695,1.552,1.552C172.418,50.018,171.724,50.712,170.867,50.712z"/>
	</g>
</g>
</svg>
