<?xml version="1.0" encoding="UTF-8" standalone="no"?>
<svg
   xmlns:dc="http://purl.org/dc/elements/1.1/"
   xmlns:cc="http://creativecommons.org/ns#"
   xmlns:rdf="http://www.w3.org/1999/02/22-rdf-syntax-ns#"
   xmlns:svg="http://www.w3.org/2000/svg"
   xmlns="http://www.w3.org/2000/svg"
   id="svg18"
   preserveAspectRatio="xMidYMid meet"
   viewBox="0 0 726.09998 304.88962"
   height="304.88962pt"
   width="726.09998pt"
   version="1.0">
  <defs
     id="defs22" />
  <metadata
     id="metadata2">
Created by potrace 1.15, written by Peter Selinger 2001-2017
<rdf:RDF>
  <cc:Work
     rdf:about="">
    <dc:format>image/svg+xml</dc:format>
    <dc:type
       rdf:resource="http://purl.org/dc/dcmitype/StillImage" />
  </cc:Work>
</rdf:RDF>
</metadata>
  <g
     style="fill:#000000;stroke:none"
     id="g16"
     transform="matrix(0.1,0,0,-0.1,0.1,305)">
    <path
       id="path4"
       d="m 6242,1963 3,-1088 28,-90 C 6330,604 6424,453 6562,326 6738,163 6939,73 7174,54 l 86,-7 v 260 261 l -77,11 c -200,29 -372,187 -412,379 -7,32 -11,167 -11,337 v 285 h 250 250 v 220 220 h -250 -250 v 515 515 h -260 -261 z" />
    <path
       id="path6"
       d="m 5700,2739 c -72,-29 -151,-107 -173,-173 -26,-75 -22,-179 7,-243 29,-62 89,-123 154,-154 72,-35 187,-34 264,4 111,55 172,152 172,277 1,62 -4,85 -27,132 -31,62 -84,116 -149,149 -63,33 -175,36 -248,8 z" />
    <path
       id="path8"
       d="M 872,2019 C 648,1990 433,1877 268,1702 152,1578 78,1450 28,1289 6,1216 6,1205 2,633 L -1,50 h 261 260 v 518 c 0,562 2,582 57,683 29,55 123,151 179,186 108,65 287,85 411,45 158,-50 286,-186 329,-347 11,-39 14,-167 14,-567 V 50 h 265 265 v 468 c 0,618 -11,732 -90,907 -87,193 -265,383 -460,488 -171,93 -407,134 -618,106 z" />
    <path
       id="path10"
       d="m 5238,2015 c -364,-57 -682,-326 -803,-680 -42,-123 -45,-173 -45,-738 l -1,-542 261,-3 260,-2 v 517 c 0,313 4,535 11,562 17,77 60,152 126,222 90,95 161,129 326,154 l 37,6 v 259 260 l -42,-1 c -24,-1 -82,-7 -130,-14 z" />
    <path
       id="path12"
       d="m 3027,2010 c -211,-38 -401,-143 -559,-308 -126,-132 -198,-257 -245,-428 -25,-90 -27,-115 -27,-264 0,-121 5,-183 17,-232 74,-297 274,-547 542,-678 154,-76 222,-92 413,-97 172,-6 235,1 352,39 120,38 256,116 353,200 l 37,33 -151,200 c -82,110 -154,204 -159,209 -4,4 -26,-10 -49,-33 -51,-51 -109,-88 -180,-114 -81,-29 -243,-29 -325,2 -122,44 -220,129 -275,239 -17,34 -31,66 -31,72 0,7 239,10 739,10 h 739 l 7,88 c 7,100 -6,232 -36,341 -87,323 -360,597 -694,697 -79,23 -111,27 -255,30 -91,1 -187,-1 -213,-6 z m 318,-522 c 28,-6 72,-22 100,-36 53,-26 148,-117 178,-170 l 18,-32 h -431 -431 l 23,41 c 33,60 119,136 190,169 102,47 223,57 353,28 z" />
    <path
       id="path14"
       d="M 5560,1035 V 50 h 260 260 v 985 985 h -260 -260 z" />
  </g>
</svg>
