<?xml version="1.0"?>
<svg xmlns="http://www.w3.org/2000/svg" width="26" height="26" viewBox="0 0 26 26">
    <path d="M 3.6875 6 C 3.2875 6 3 6.2875 3 6.6875 L 3 7 L 1.6875 7 C 1.2875 7 1 7.2875 1 7.6875 L 1 8.3125 C 1 8.7125 1.2875 9 1.6875 9 L 3 9 L 3 10 L 1.6875 10 C 1.2875 10 1 10.2875 1 10.6875 L 1 11.3125 C 1 11.7125 1.2875 12 1.6875 12 L 3 12 L 3 13 L 1.6875 13 C 1.2875 13 1 13.2875 1 13.6875 L 1 14.3125 C 1 14.7125 1.2875 15 1.6875 15 L 3 15 L 3 16 L 5 16 L 5 15 L 21 15 L 21 16 L 23 16 L 23 15 L 24.3125 15 C 24.7125 15 25 14.7125 25 14.3125 L 25 13.6875 C 25 13.2875 24.7125 13 24.3125 13 L 23 13 L 23 12 L 24.3125 12 C 24.7125 12 25 11.7125 25 11.3125 L 25 10.6875 C 25 10.2875 24.7125 10 24.3125 10 L 23 10 L 23 9 L 24.3125 9 C 24.7125 9 25 8.7125 25 8.3125 L 25 7.6875 C 25 7.2875 24.7125 7 24.3125 7 L 23 7 L 23 6.6875 C 23 6.2875 22.7125 6 22.3125 6 L 21.6875 6 C 21.2875 6 21 6.2875 21 6.6875 L 21 7 L 5 7 L 5 6.6875 C 5 6.2875 4.7125 6 4.3125 6 L 3.6875 6 z M 5 9 L 21 9 L 21 10 L 5 10 L 5 9 z M 5 12 L 21 12 L 21 13 L 5 13 L 5 12 z M 0.6875 17 C 0.2875 17 0 17.2875 0 17.6875 L 0 19.3125 C -1.4802974e-16 19.7125 0.2875 20 0.6875 20 L 1 20 L 1 25.40625 C 1 25.70625 1.29375 26 1.59375 26 L 2.40625 26 C 2.70625 26 3 25.70625 3 25.40625 L 3 20 L 4 20 L 4 23.40625 C 4 23.70625 4.29375 24 4.59375 24 L 5.40625 24 C 5.70625 24 6 23.70625 6 23.40625 L 6 20 L 20 20 L 20 23.40625 C 20 23.70625 20.29375 24 20.59375 24 L 21.40625 24 C 21.70625 24 22 23.70625 22 23.40625 L 22 20 L 23 20 L 23 25.40625 C 23 25.70625 23.29375 26 23.59375 26 L 24.40625 26 C 24.70625 26 25 25.70625 25 25.40625 L 25 20 L 25.3125 20 C 25.7125 20 26 19.7125 26 19.3125 L 26 17.6875 C 26 17.2875 25.7125 17 25.3125 17 L 0.6875 17 z"/>
</svg>
