<?xml version="1.0"?>
<svg xmlns="http://www.w3.org/2000/svg" width="50" height="50" viewBox="0 0 50 50">
    <path style="text-indent:0;text-align:start;line-height:normal;text-transform:none;block-progression:tb;-inkscape-font-specification:Bitstream Vera Sans" d="M 27.59375 0 C 20.910417 0 16.619599 0.79595838 13.875 3.03125 C 11.130401 5.2665416 10.3125 8.7876812 10.3125 13.5 C 10.3125 13.632469 10.36976 14.029462 10.375 14.1875 C 8.2072742 13.799673 5.9803134 14.602891 4.5625 16.40625 C 2.8826527 18.542898 2.3740435 21.928827 3.96875 25.96875 C 6.4132396 32.385535 9.1027463 35.840312 11.625 37.8125 C 12.85092 38.771065 14.029724 39.363422 15.0625 39.78125 C 15.393778 41.839506 15.698511 43.581895 16.03125 44.9375 C 16.382153 46.367106 16.667428 47.354928 17.40625 48.09375 L 17.40625 48.125 C 18.25971 48.912809 19.463472 49.359765 21.1875 49.625 C 22.911528 49.890235 25.229487 50 28.5 50 C 31.780769 50 34.197471 49.848888 35.96875 49.5 C 37.719672 49.155121 38.973407 48.601604 39.5625 47.46875 L 39.59375 47.46875 C 39.59705 47.46225 39.59045 47.44409 39.59375 47.4375 C 40.449375 45.837515 40.679068 43.342709 40.84375 41.0625 C 41.003189 38.854878 41.000414 37.042146 41 36.90625 C 42.392914 34.606979 43.247342 31.355181 43.875 27.71875 C 44.676213 23.076799 45 17.850388 45 13.5 C 45 8.784058 44.143458 5.2629661 41.375 3.03125 C 38.606542 0.79953391 34.277083 0 27.59375 0 z M 27.59375 2 C 34.110417 2 37.993458 2.8754661 40.125 4.59375 C 42.256542 6.3120339 43 9.015942 43 13.5 C 43 17.749612 42.680037 22.891951 41.90625 27.375 C 41.132463 31.858049 39.787252 35.681498 38.28125 37.1875 C 38.044624 37.424126 36.707983 38.035894 34.9375 38.40625 C 33.167017 38.776606 30.960644 39.027365 28.71875 39.1875 C 26.476856 39.347635 24.180214 39.407838 22.3125 39.34375 C 20.444786 39.279662 18.911926 39.05227 18.46875 38.875 C 16.905569 38.260893 15.052746 37.921562 12.875 36.21875 C 10.697254 34.515938 8.1992604 31.433215 5.84375 25.25 L 5.84375 25.21875 C 4.4384565 21.658673 4.9548473 19.113352 6.125 17.625 C 7.2447825 16.200715 8.9603526 15.752558 10.59375 16.3125 C 10.720798 17.763766 10.775188 18.989025 11.03125 20.8125 C 11.447395 23.775956 11.888742 26.550952 12.46875 27.96875 A 1.0001 1.0001 0 1 0 14.3125 27.21875 C 13.992508 26.436548 13.408855 23.442794 13 20.53125 C 12.591145 17.619706 12.3125 14.59 12.3125 13.5 C 12.3125 9.0123188 13.019599 6.2772084 15.125 4.5625 C 17.230401 2.8477916 21.077083 2 27.59375 2 z M 38.90625 39.21875 C 38.883255 39.778616 38.890915 40.284607 38.84375 40.9375 C 38.68424 43.146096 38.246414 45.730177 37.8125 46.53125 L 37.8125 46.5625 C 37.692496 46.802509 37.122471 47.230138 35.59375 47.53125 C 34.065029 47.832362 31.719231 48 28.5 48 C 25.270513 48 23.025972 47.891015 21.5 47.65625 C 19.99516 47.424736 19.261268 47.09226 18.8125 46.6875 C 18.8115 46.6865 18.7825 46.65774 18.78125 46.65625 C 18.70866 46.56987 18.287342 45.766718 17.96875 44.46875 C 17.72153 43.46156 17.500319 42.088605 17.25 40.5625 C 17.401631 40.61406 17.589915 40.668136 17.71875 40.71875 C 18.775574 41.14148 20.292714 41.276588 22.25 41.34375 C 24.207286 41.41091 26.535644 41.35235 28.84375 41.1875 C 31.151856 41.022635 33.439233 40.742144 35.34375 40.34375 C 36.772138 40.044954 37.986678 39.753038 38.90625 39.21875 z" overflow="visible" enable-background="accumulate" font-family="Bitstream Vera Sans"/>
</svg>
