<?xml version="1.0" standalone="no"?>
<!DOCTYPE svg PUBLIC "-//W3C//DTD SVG 20010904//EN"
 "http://www.w3.org/TR/2001/REC-SVG-20010904/DTD/svg10.dtd">
<svg version="1.0" xmlns="http://www.w3.org/2000/svg"
 width="212.000000pt" height="220.000000pt" viewBox="0 0 212.000000 220.000000"
 preserveAspectRatio="xMidYMid meet">
<metadata>
Created by potrace 1.15, written by Peter Selinger 2001-2017
</metadata>
<g transform="translate(0.000000,220.000000) scale(0.100000,-0.100000)"
fill="#000000" stroke="none">
<path d="M690 2174 c-169 -45 -282 -153 -347 -332 l-24 -65 39 -66 c21 -36 81
-143 132 -237 l94 -171 58 -21 c32 -12 58 -19 58 -16 0 2 -41 86 -91 185 -49
100 -89 183 -87 184 2 2 36 -12 77 -31 40 -19 77 -34 82 -34 4 0 33 37 65 83
32 45 59 84 61 86 7 10 17 -17 79 -215 36 -115 69 -215 73 -222 5 -9 35 5 106
49 55 34 114 70 132 80 l31 19 -5 -57 c-4 -49 -2 -62 17 -85 27 -35 93 -40
110 -9 25 47 14 88 -110 426 -147 399 -159 428 -172 436 -47 29 -286 38 -378
13z"/>
<path d="M1790 1290 c0 -15 -17 -42 -46 -71 -40 -40 -46 -51 -40 -74 6 -25 10
-26 41 -21 41 8 43 2 14 -57 -15 -30 -20 -53 -15 -71 8 -32 25 -35 19 -3 -6
32 19 50 57 42 30 -7 30 -7 24 -55 -6 -43 -4 -49 16 -60 20 -11 22 -18 17 -69
l-5 -56 19 40 c21 45 24 93 9 146 -10 34 -26 59 -94 143 -28 35 -28 37 -11 62
31 48 36 81 15 106 l-19 23 -1 -25z"/>
<path d="M1414 1235 c-86 -18 -129 -43 -245 -140 -55 -47 -105 -85 -110 -85
-12 0 -11 -27 2 -51 10 -19 12 -19 50 15 47 43 95 50 85 14 -38 -134 -44 -180
-27 -207 17 -27 31 0 27 52 -2 29 -2 42 1 30 4 -23 23 -33 23 -13 0 6 11 15
24 21 36 17 39 47 10 81 -25 30 -32 72 -14 83 17 10 11 33 -10 40 -11 3 -20
13 -20 22 0 10 6 13 16 9 9 -3 27 -6 40 -6 17 0 24 -6 24 -20 0 -11 4 -20 9
-20 24 0 41 14 41 35 0 14 17 38 46 65 l46 42 23 -22 c13 -12 29 -35 36 -52
10 -24 9 -32 -3 -45 -14 -14 -18 -13 -37 6 l-21 21 0 -22 c0 -40 16 -53 64
-53 96 0 115 75 35 143 -16 13 -29 30 -29 37 0 27 -24 33 -86 20z"/>
<path d="M736 1067 c3 -9 21 -28 41 -43 l34 -26 -22 -24 c-18 -19 -21 -31 -16
-66 6 -41 5 -40 -28 31 -19 40 -35 78 -35 82 0 16 -25 9 -225 -71 -129 -51
-199 -84 -197 -92 2 -7 45 -107 97 -223 51 -115 100 -228 109 -250 21 -49 26
-52 101 -60 54 -6 92 -1 162 20 19 6 22 4 20 -21 l-2 -29 105 0 105 0 3 53 3
52 38 0 c21 0 53 -3 70 -6 30 -6 31 -8 31 -61 0 -72 10 -88 67 -104 52 -15
206 -19 220 -6 4 5 -9 57 -30 115 -22 59 -41 114 -44 123 -3 13 5 18 38 23
l42 7 -41 21 c-52 25 -82 62 -82 99 0 32 -3 34 -30 19 -11 -6 -17 -17 -14 -24
8 -20 -102 -31 -226 -23 -140 10 -148 13 -176 77 -29 67 -29 86 -5 141 11 24
29 67 40 96 20 51 20 52 1 76 -19 24 -112 91 -144 103 -12 5 -15 2 -10 -9z
m-57 -155 c22 -41 162 -385 167 -411 5 -22 -1 -33 -34 -63 -46 -41 -87 -56
-183 -65 -63 -5 -68 -4 -83 19 -17 27 -176 417 -176 434 0 13 54 39 155 75 95
33 140 37 154 11z"/>
<path d="M580 876 c-36 -12 -85 -33 -109 -45 -54 -28 -55 -23 35 -250 74 -186
69 -181 159 -181 58 0 125 28 148 60 15 21 14 27 -7 84 -47 124 -151 357 -159
356 -1 0 -31 -11 -67 -24z"/>
<path d="M1563 1013 c-8 -3 -13 -22 -13 -46 0 -31 7 -48 28 -71 l27 -30 -44
32 c-25 18 -53 32 -62 32 -10 0 -34 -19 -54 -42 -36 -42 -37 -47 -20 -105 3
-10 -2 -3 -11 15 -38 70 -106 23 -108 -74 -1 -48 34 -101 95 -141 82 -54 203
-19 327 94 67 62 81 92 82 181 0 40 -3 44 -61 87 -33 25 -84 52 -112 60 -54
16 -55 16 -74 8z"/>
<path d="M958 828 c-2 -17 -11 -24 -30 -26 -23 -3 -28 -8 -28 -32 0 -21 6 -29
25 -34 19 -5 25 -13 25 -35 0 -24 5 -30 31 -35 47 -9 49 -8 49 24 0 25 4 30
25 30 20 0 25 5 25 24 0 13 3 31 6 40 5 13 -1 16 -25 16 -26 0 -31 4 -31 25 0
22 -4 25 -34 25 -28 0 -35 -4 -38 -22z"/>
<path d="M731 183 c-21 -44 -22 -48 -5 -60 42 -30 173 -24 262 12 29 13 32 18
32 54 l0 41 -133 0 -133 0 -23 -47z"/>
<path d="M1140 136 c0 -25 0 -49 -1 -53 -1 -13 122 -53 181 -60 77 -8 122 2
154 34 31 31 32 47 6 80 -19 24 -23 25 -162 27 -79 1 -151 6 -160 10 -16 7
-18 2 -18 -38z"/>
</g>
</svg>
