<?xml version="1.0"?>
<svg xmlns="http://www.w3.org/2000/svg" viewBox="0 0 24 24">
    <path d="M 12 1 L 12 3 L 16 3 L 15 2 L 16 1 L 12 1 z M 12 4 L 19 11 L 19 13 C 19 13 19.244 14 20.5 14 C 21.756 14 22 13 22 13 L 22 11 L 12 4 z M 12 4 L 13 11 L 13 13 C 13 13 13.496 14 15 14 C 16.504 14 17 13 17 13 L 17 11 L 12 4 z M 12 4 L 7 11 L 7 13 C 7 13 7.496 14 9 14 C 10.504 14 11 13 11 13 L 11 11 L 12 4 z M 12 4 L 2 11 L 2 13 C 2 13 2.244 14 3.5 14 C 4.756 14 5 13 5 13 L 5 11 L 12 4 z M 6 14 C 6 14 5.008 15 3.5 15 C 3.285 15 3.08925 14.9745 2.90625 14.9375 L 2 22 L 9 22 L 10 18 L 14 18 L 15 22 L 22 22 L 21.09375 14.9375 C 20.91075 14.9745 20.715 15 20.5 15 C 18.763 15 18 14 18 14 C 18 14 16.852 15 15 15 C 13.403 15 12 14 12 14 C 12 14 10.589 15 9 15 C 7.174 15 6 14 6 14 z"/>
</svg>
