<?xml version="1.0" standalone="no"?>
<!DOCTYPE svg PUBLIC "-//W3C//DTD SVG 20010904//EN"
 "http://www.w3.org/TR/2001/REC-SVG-20010904/DTD/svg10.dtd">
<svg version="1.0" xmlns="http://www.w3.org/2000/svg"
 width="256.000000pt" height="256.000000pt" viewBox="0 0 256.000000 256.000000"
 preserveAspectRatio="xMidYMid meet">
<metadata>
Created by potrace 1.15, written by Peter Selinger 2001-2017
</metadata>
<g transform="translate(0.000000,256.000000) scale(0.100000,-0.100000)"
fill="#000000" stroke="none">
<path d="M1025 2161 c-65 -41 -981 -809 -1003 -841 -44 -65 -23 -116 85 -205
59 -49 617 -479 866 -668 96 -73 127 -81 168 -48 24 19 24 23 29 238 l5 218
667 5 667 5 23 23 c23 22 23 24 26 369 2 249 -1 355 -9 375 -25 61 8 58 -725
58 l-672 0 -4 218 c-3 188 -5 222 -21 245 -21 33 -58 36 -102 8z m-138 -754
c4 -8 15 -17 23 -20 8 -3 -15 -6 -51 -6 -79 -1 -79 0 -79 -116 0 -76 -2 -84
-21 -90 -35 -12 -43 9 -41 109 l2 95 -47 3 c-34 2 -49 8 -51 19 -2 13 15 16
127 17 100 2 132 -1 138 -11z m651 -19 c16 -16 15 -45 -1 -51 -7 -3 -26 -3
-41 0 -33 7 -55 -18 -56 -62 0 -64 61 -103 75 -48 13 55 41 66 95 38 21 -11
30 -23 30 -40 0 -29 -41 -60 -69 -52 -11 3 -40 1 -65 -5 -77 -16 -134 29 -123
98 7 43 53 103 92 120 38 17 48 17 63 2z m949 -15 c-18 -90 -19 -152 -3 -184
20 -39 14 -47 -17 -26 -17 11 -27 13 -35 5 -7 -7 -20 -7 -42 0 -20 8 -39 8
-56 2 -40 -16 -72 -12 -94 12 -39 43 -11 98 50 98 57 0 67 -44 17 -68 -34 -16
-32 -22 3 -15 14 2 30 14 35 26 6 11 25 26 44 32 31 10 36 18 54 78 13 43 25
67 35 67 11 0 13 -7 9 -27z m-1323 7 c30 -11 35 -44 9 -59 -17 -9 -16 -12 9
-37 l27 -28 21 27 c35 45 120 34 120 -15 0 -21 -22 -34 -73 -43 -44 -9 -39
-25 8 -25 37 0 56 -17 34 -31 -26 -17 -69 -9 -95 16 l-24 24 -33 -19 c-34 -21
-102 -26 -127 -10 -12 7 -15 29 -14 99 1 49 5 94 9 100 8 14 95 14 129 1z
m696 -16 c0 -17 6 -28 19 -31 23 -6 17 -29 -8 -36 -24 -6 -36 -69 -19 -96 7
-11 9 -24 5 -28 -12 -12 -42 12 -45 37 l-4 23 -12 -24 c-15 -32 -46 -37 -53
-10 -7 26 -11 26 -40 -1 -20 -19 -25 -20 -34 -8 -10 17 -3 60 13 75 7 7 12 6
15 -2 3 -9 17 -11 43 -7 23 4 40 2 44 -5 12 -19 21 -12 23 18 2 22 -3 32 -18
36 -25 8 -19 29 9 33 13 2 22 11 22 21 0 21 9 31 27 31 7 0 13 -11 13 -26z"/>
</g>
</svg>
