<?xml version="1.0" standalone="no"?>
<!DOCTYPE svg PUBLIC "-//W3C//DTD SVG 20010904//EN"
 "http://www.w3.org/TR/2001/REC-SVG-20010904/DTD/svg10.dtd">
<svg version="1.0" xmlns="http://www.w3.org/2000/svg"
 width="200.000000pt" height="200.000000pt" viewBox="0 0 200.000000 200.000000"
 preserveAspectRatio="xMidYMid meet">
<metadata>
Created by potrace 1.15, written by Peter Selinger 2001-2017
</metadata>
<g transform="translate(0.000000,200.000000) scale(0.100000,-0.100000)"
fill="#000000" stroke="none">
<path d="M702 1640 c-29 -4 -70 -19 -90 -33 -44 -29 -105 -127 -132 -213 -21
-70 -67 -289 -76 -367 l-6 -52 303 -28 c167 -15 314 -28 325 -27 12 0 53 19
90 42 90 54 210 109 326 149 51 18 94 33 95 34 6 3 -18 223 -28 270 -21 92
-42 121 -111 153 -109 51 -195 67 -363 67 -185 0 -208 -8 -215 -75 l-5 -45
-22 29 c-28 35 -28 37 -3 69 l20 25 -23 6 c-12 3 -24 5 -27 5 -3 -1 -29 -5
-58 -9z"/>
<path d="M249 1174 c-64 -19 -138 -72 -177 -127 -52 -72 -72 -142 -72 -251 0
-155 43 -261 145 -354 67 -61 129 -84 225 -83 116 1 146 22 220 151 27 46 75
107 127 159 46 46 82 85 81 86 -3 3 -325 35 -351 35 -23 0 -43 46 -63 146 -14
69 -14 81 1 152 10 42 20 82 22 89 7 18 -98 16 -158 -3z"/>
<path d="M1595 1124 c-297 -71 -595 -239 -838 -473 -94 -91 -157 -169 -157
-195 0 -9 2 -16 5 -16 3 0 58 26 123 59 141 71 345 152 542 216 l145 47 165 2
c151 2 171 4 233 28 125 48 187 108 187 182 0 68 -50 128 -129 155 -46 15
-203 13 -276 -5z"/>
<path d="M410 928 c0 -7 4 -18 8 -24 4 -6 120 -21 264 -34 249 -22 258 -22
285 -5 15 10 23 20 18 21 -10 3 -545 54 -565 54 -5 0 -10 -6 -10 -12z"/>
<path d="M450 853 c1 -25 28 -32 180 -47 91 -9 181 -16 200 -16 34 0 69 14 60
24 -3 2 -82 12 -175 20 -94 9 -191 19 -217 22 -27 3 -48 2 -48 -3z"/>
</g>
</svg>
