<?xml version="1.0"?>
<svg xmlns="http://www.w3.org/2000/svg" viewBox="0 0 64 64">
    <path d="M 31 0 C 29.683 0 28.573875 0.85996875 28.171875 2.0429688 C 18.081875 2.4809688 10 10.803 10 21 L 10 25.84375 L 0.69921875 54.673828 C 0.44721875 55.456828 0.52973437 56.319016 0.92773438 57.041016 C 1.3247344 57.762016 2.0086875 58.292047 2.8046875 58.498047 L 4.2636719 58.875 C 12.426672 60.982 20.798406 62.118125 29.191406 62.328125 L 30.337891 63.09375 C 30.842891 63.43075 31.421 63.597656 32 63.597656 C 32.579 63.597656 33.158062 63.43075 33.664062 63.09375 L 34.810547 62.328125 C 43.201547 62.118125 51.575328 60.981 59.736328 58.875 L 61.193359 58.498047 C 61.989359 58.292047 62.674266 57.763969 63.072266 57.042969 C 63.470266 56.320969 63.553781 55.456828 63.300781 54.673828 L 54 25.84375 L 54 21 C 54 10.803 45.918125 2.4809687 35.828125 2.0429688 C 35.426125 0.85996875 34.317 0 33 0 L 31 0 z M 31 2 L 33 2 C 33.552 2 34 2.448 34 3 L 34 26 C 34 26.552 33.552 27 33 27 L 31 27 C 30.448 27 30 26.552 30 26 L 30 3 C 30 2.448 30.448 2 31 2 z M 28 4.0507812 L 28 24.951172 C 26.763 24.335172 25.391 24 24 24 L 22.390625 24 C 18.706625 24 15.432828 26.204187 14.048828 29.617188 L 3.1542969 56.488281 C 2.9572969 56.400281 2.7866875 56.269172 2.6796875 56.076172 C 2.5456875 55.832172 2.5175156 55.553109 2.6035156 55.287109 L 11.953125 26.308594 L 12 21 C 12 11.964 19.092 4.5727813 28 4.0507812 z M 36 4.0507812 C 44.908 4.5727813 52 11.964 52 21 L 52 26.15625 L 61.396484 55.285156 C 61.481484 55.551156 61.455312 55.832172 61.320312 56.076172 C 61.214312 56.269172 61.041703 56.401281 60.845703 56.488281 L 49.951172 29.617188 C 48.567172 26.204187 45.293375 24 41.609375 24 L 40 24 C 38.609 24 37.237 24.336172 36 24.951172 L 36 4.0507812 z M 38.875 6.5820312 C 38.487812 6.6258125 38.145094 6.8962188 38.027344 7.2929688 C 37.870344 7.8219687 38.174125 8.3781563 38.703125 8.5351562 C 39.390125 8.7371562 40.061266 9.0005 40.697266 9.3125 C 40.839266 9.3815 40.987766 9.4140625 41.134766 9.4140625 C 41.504766 9.4140625 41.860203 9.2085156 42.033203 8.8535156 C 42.276203 8.3565156 42.072172 7.758625 41.576172 7.515625 C 40.840172 7.155625 40.064484 6.8521875 39.271484 6.6171875 C 39.139234 6.5779375 39.004063 6.5674375 38.875 6.5820312 z M 44.273438 9.5625 C 44.017812 9.576625 43.769437 9.6885312 43.585938 9.8945312 C 43.217937 10.306531 43.251109 10.938641 43.662109 11.306641 C 45.062109 12.559641 46.1965 14.12875 46.9375 15.84375 C 47.1005 16.22175 47.467469 16.447266 47.855469 16.447266 C 47.987469 16.447266 48.122953 16.421234 48.251953 16.365234 C 48.758953 16.145234 48.992437 15.556781 48.773438 15.050781 C 47.918437 13.070781 46.610094 11.261406 44.996094 9.8164062 C 44.790094 9.6319063 44.529063 9.548375 44.273438 9.5625 z M 22.390625 26 L 24 26 C 25.159 26 26.306359 26.289938 27.318359 26.835938 C 27.638359 27.008937 27.967781 27.152156 28.300781 27.285156 C 28.783781 28.295156 29.808 29 31 29 L 33 29 C 34.192 29 35.216219 28.295156 35.699219 27.285156 C 36.032219 27.152156 36.360641 27.008938 36.681641 26.835938 C 37.693641 26.289938 38.841 26 40 26 L 41.609375 26 C 44.474375 26 47.021656 27.714141 48.097656 30.369141 L 58.900391 57.019531 C 52.041391 58.766531 45.033187 59.822031 37.992188 60.207031 L 42.787109 57.009766 C 43.336109 57.613766 44.121 58 45 58 C 46.654 58 48 56.654 48 55 C 48 53.722 47.192453 52.636078 46.064453 52.205078 L 51.832031 43.554688 C 52.139031 43.094687 52.014688 42.474969 51.554688 42.167969 C 51.092687 41.860969 50.473969 41.985312 50.167969 42.445312 L 43.785156 52.017578 L 35 41.634766 L 35 40 C 35 38.346 33.654 37 32 37 C 30.346 37 29 38.346 29 40 L 29 41.634766 L 20.214844 52.017578 L 13.832031 42.445312 C 13.525031 41.985312 12.905312 41.862922 12.445312 42.169922 C 11.985312 42.476922 11.860969 43.096641 12.167969 43.556641 L 17.935547 52.205078 C 16.807547 52.635078 16 53.722 16 55 C 16 56.654 17.346 58 19 58 C 19.879 58 20.663891 57.613766 21.212891 57.009766 L 26.007812 60.207031 C 18.965813 59.822031 11.957656 58.766531 5.0976562 57.019531 L 15.902344 30.369141 C 16.979344 27.714141 19.524625 26 22.390625 26 z M 23.042969 28 C 20.178969 28 17.631641 29.715187 16.556641 32.367188 L 16.503906 32.496094 C 16.002906 33.731094 16.147578 35.129375 16.892578 36.234375 C 17.636578 37.340375 18.877937 38 20.210938 38 L 26 38 C 28.206 38 30 36.206 30 34 C 30 30.691 27.309 28 24 28 L 23.042969 28 z M 40 28 C 36.691 28 34 30.691 34 34 C 34 36.206 35.794 38 38 38 L 43.789062 38 C 45.122062 38 46.363422 37.340375 47.107422 36.234375 C 47.852422 35.129375 47.998094 33.731141 47.496094 32.494141 L 47.445312 32.369141 C 46.369312 29.715141 43.821031 28 40.957031 28 L 40 28 z M 23.042969 30 L 24 30 C 26.206 30 28 31.794 28 34 C 28 35.103 27.103 36 26 36 L 20.210938 36 C 19.533938 36 18.928781 35.679188 18.550781 35.117188 C 18.172781 34.556188 18.102469 33.875953 18.355469 33.251953 L 18.408203 33.121094 C 19.176203 31.225094 20.996969 30 23.042969 30 z M 40 30 L 40.957031 30 C 43.003031 30 44.82375 31.225047 45.59375 33.123047 L 45.644531 33.248047 C 45.898531 33.874047 45.827219 34.557188 45.449219 35.117188 C 45.070219 35.679187 44.466062 36 43.789062 36 L 38 36 C 36.897 36 36 35.103 36 34 C 36 31.794 37.794 30 40 30 z M 32 39 C 32.552 39 33 39.448 33 40 L 33 41 L 31 41 L 31 40 C 31 39.448 31.448 39 32 39 z M 17 40 C 16.447 40 16 40.447 16 41 C 16 41.553 16.447 42 17 42 L 26 42 C 26.553 42 27 41.553 27 41 C 27 40.447 26.553 40 26 40 L 17 40 z M 38 40 C 37.447 40 37 40.447 37 41 C 37 41.553 37.447 42 38 42 L 47 42 C 47.553 42 48 41.553 48 41 C 48 40.447 47.553 40 47 40 L 38 40 z M 30.464844 43 L 33.535156 43 L 42.417969 53.498047 C 42.324969 53.657047 42.245594 53.824 42.183594 54 L 21.816406 54 C 21.753406 53.824 21.675031 53.657047 21.582031 53.498047 L 30.464844 43 z M 32 46 C 31.447 46 31 46.447 31 47 L 31 52 C 31 52.553 31.447 53 32 53 C 32.553 53 33 52.553 33 52 L 33 47 C 33 46.447 32.553 46 32 46 z M 27 49 C 26.447 49 26 49.447 26 50 L 26 52 C 26 52.553 26.447 53 27 53 C 27.553 53 28 52.553 28 52 L 28 50 C 28 49.447 27.553 49 27 49 z M 37 49 C 36.447 49 36 49.447 36 50 L 36 52 C 36 52.553 36.447 53 37 53 C 37.553 53 38 52.553 38 52 L 38 50 C 38 49.447 37.553 49 37 49 z M 19 54 C 19.552 54 20 54.448 20 55 C 20 55.552 19.552 56 19 56 C 18.448 56 18 55.552 18 55 C 18 54.448 18.448 54 19 54 z M 45 54 C 45.552 54 46 54.448 46 55 C 46 55.552 45.552 56 45 56 C 44.448 56 44 55.552 44 55 C 44 54.448 44.448 54 45 54 z M 23.302734 56 L 40.697266 56 L 32.556641 61.429688 C 32.218641 61.654688 31.781312 61.654687 31.445312 61.429688 L 23.302734 56 z"/>
</svg>
