<?xml version="1.0"?>
<svg xmlns="http://www.w3.org/2000/svg" viewBox="0 0 24 24" enable-background="new 0 0 24 24">
    <path d="M 19.625 0.125 C 19.4375 0.1 19.24375 0.1625 19.09375 0.3125 L 8.40625 6.6875 C 8.30625 6.7875 8.30625 6.89375 8.40625 7.09375 C 8.50625 7.19375 8.5875 7.3125 8.6875 7.3125 L 13.375 4.78125 C 14.880434 5.0373286 16.185014 5.4601997 17.1875 6 L 18.90625 5.3125 C 18.012703 4.64234 16.824149 4.0633386 15.5 3.65625 L 19.6875 1.40625 C 20.0875 1.20625 20.29375 0.80625 20.09375 0.40625 C 19.99375 0.25625 19.8125 0.15 19.625 0.125 z M 10.5 3 C 4.7 3 0 5.5 0 8.5 C 0 11.5 4.7 14 10.5 14 C 16.3 14 21 11.5 21 8.5 C 21 8.02 20.83855 7.5425 20.59375 7.0625 L 23.09375 6.3125 C 23.59375 6.1125 24.0125 5.70625 23.8125 5.40625 C 23.7125 5.00625 23.1875 4.89375 22.6875 5.09375 L 20 6.09375 L 10.40625 9.59375 C 10.30625 9.59375 10.3125 9.70625 10.3125 9.90625 C 10.3125 10.00625 10.5 10.09375 10.5 10.09375 L 19.15625 7.5 C 19.381986 7.8302839 19.5 8.1697161 19.5 8.5 C 19.5 10.4 15.7 12.5 10.5 12.5 C 5.3 12.5 1.5 10.4 1.5 8.5 C 1.5 6.6 5.1875 4.6 10.1875 4.5 L 12.3125 3.09375 C 11.7125 2.99375 11.1 3 10.5 3 z M 0 9.6875 L 0 18.5 C 0 20.3 1.6 21.8125 4 22.8125 L 4 14 C 1.6 13 0 11.3875 0 9.6875 z M 21 9.6875 C 21 11.3875 19.4 13 17 14 L 17 22.8125 C 19.4 21.8125 21 20.2 21 18.5 L 21 9.6875 z M 6 14.6875 L 6 23.5 C 7.4 23.8 8.9 24 10.5 24 C 12.1 24 13.6 23.8 15 23.5 L 15 14.6875 C 13.6 14.9875 12.1 15.1875 10.5 15.1875 C 8.9 15.1875 7.4 14.9875 6 14.6875 z"/>
</svg>
