<?xml version="1.0"?>
<svg xmlns="http://www.w3.org/2000/svg" viewBox="0 0 26 26" enable-background="new 0 0 26 26">
    <path style="text-indent:0;text-align:start;line-height:normal;text-transform:none;block-progression:tb;-inkscape-font-specification:Bitstream Vera Sans" d="M 10.28125 0 A 1.0001 1.0001 0 0 0 9.46875 0.90625 C 9.1739532 4.2092422 7.2618277 6.3732844 5.21875 8.75 C 3.1756723 11.126716 1 13.746191 1 17.65625 C 1 20.355337 2.2242404 22.483402 3.8125 23.875 C 5.4007596 25.266598 7.3190606 26 9 26 A 1.0001 1.0001 0 1 0 9 24 C 7.9309394 24 6.3492404 23.447652 5.125 22.375 C 3.9007596 21.302348 3 19.766163 3 17.65625 C 3 14.482309 4.7193277 12.424784 6.75 10.0625 C 8.468743 8.0630835 10.324098 5.8253648 11.09375 2.78125 C 18.061125 7.867762 21 12.940638 21 16.625 C 21 20.281756 18.723593 23.211145 16.625 24.0625 A 1.0097184 1.0097184 0 0 0 17.375 25.9375 C 20.418407 24.702855 23 21.080244 23 16.625 C 23 11.685539 19.312799 5.8012977 11.03125 0.1875 A 1.0001 1.0001 0 0 0 10.375 0 A 1.0001 1.0001 0 0 0 10.28125 0 z M 12.25 7.6875 A 1.0001 1.0001 0 0 0 11.375 8.875 C 11.674821 10.604757 11.748736 12.005289 11.65625 13.03125 C 11.56376 14.057211 11.268112 14.673303 11.09375 14.875 C 10.919388 15.076697 11.03161 15.058664 10.75 14.9375 C 10.468393 14.816336 9.8972194 14.370334 9.3125 13.46875 A 1.0001 1.0001 0 0 0 7.6875 13.40625 C 5.7466161 16.025006 5.7649229 18.293361 6.5 19.75 C 7.2350771 21.206639 8.53125 21.875 8.53125 21.875 A 1.0001 1.0001 0 1 0 9.46875 20.125 C 9.46875 20.125 8.7019229 19.708611 8.28125 18.875 C 7.9622499 18.242865 8.0233104 17.214419 8.65625 15.875 C 9.0532455 16.278595 9.5050906 16.581757 9.96875 16.78125 C 10.851924 17.161243 11.997237 16.913678 12.625 16.1875 C 13.252763 15.461322 13.510954 14.483882 13.625 13.21875 C 13.67064 12.712495 13.520553 11.943651 13.5 11.34375 C 14.388988 12.396218 15.117745 13.488581 15.4375 14.625 C 15.951135 16.45047 15.715752 18.313616 14.1875 20.40625 A 1.0063276 1.0063276 0 1 0 15.8125 21.59375 C 17.639248 19.092384 18.041365 16.43078 17.375 14.0625 C 16.708635 11.69422 15.066489 9.6410216 13 7.9375 A 1.0001 1.0001 0 0 0 12.34375 7.6875 A 1.0001 1.0001 0 0 0 12.25 7.6875 z" overflow="visible" enable-background="accumulate" font-family="Bitstream Vera Sans"/>
</svg>
