<?xml version="1.0" standalone="no"?>
<!DOCTYPE svg PUBLIC "-//W3C//DTD SVG 20010904//EN"
 "http://www.w3.org/TR/2001/REC-SVG-20010904/DTD/svg10.dtd">
<svg version="1.0" xmlns="http://www.w3.org/2000/svg"
 width="1000.000000pt" height="1000.000000pt" viewBox="0 0 1000.000000 1000.000000"
 preserveAspectRatio="xMidYMid meet">
<metadata>
Created by potrace 1.15, written by Peter Selinger 2001-2017
</metadata>
<g transform="translate(0.000000,1000.000000) scale(0.100000,-0.100000)"
fill="#000000" stroke="none">
<path d="M4645 9994 c-22 -2 -107 -11 -190 -20 -1460 -151 -2798 -964 -3622
-2199 -474 -712 -749 -1506 -823 -2380 -13 -155 -13 -635 0 -790 25 -294 68
-551 137 -830 368 -1476 1407 -2714 2803 -3342 470 -212 943 -340 1510 -410
208 -26 870 -26 1080 0 643 79 1160 231 1700 501 545 273 995 611 1427 1071
706 752 1169 1741 1298 2770 49 393 49 875 0 1270 -272 2186 -1976 3952 -4158
4305 -271 44 -383 52 -757 55 -201 2 -383 1 -405 -1z m1655 -2623 c1345 -50
2115 -127 2319 -231 152 -77 247 -362 301 -900 31 -311 40 -529 47 -1115 12
-1105 -36 -1712 -159 -2025 -70 -179 -131 -236 -313 -293 -398 -125 -1566
-243 -2860 -288 -360 -13 -1309 -7 -1745 11 -1524 61 -2405 166 -2626 313
-145 96 -235 328 -274 707 -6 58 -13 260 -16 450 -7 434 12 2056 26 2210 49
554 144 836 308 919 260 130 1142 215 2627 251 427 10 1997 4 2365 -9z"/>
<path d="M4737 7035 c-569 -69 -1085 -366 -1427 -820 -220 -292 -351 -608
-405 -979 -21 -146 -21 -426 1 -577 96 -668 504 -1251 1096 -1563 1121 -593
2509 -64 2952 1125 170 458 170 999 0 1458 -188 506 -571 927 -1055 1161 -360
173 -771 242 -1162 195z"/>
</g>
</svg>
