<?xml version="1.0" standalone="no"?>
<!DOCTYPE svg PUBLIC "-//W3C//DTD SVG 20010904//EN"
 "http://www.w3.org/TR/2001/REC-SVG-20010904/DTD/svg10.dtd">
<svg version="1.0" xmlns="http://www.w3.org/2000/svg"
 width="200.000000pt" height="200.000000pt" viewBox="0 0 200.000000 200.000000"
 preserveAspectRatio="xMidYMid meet">
<metadata>
Created by potrace 1.15, written by Peter Selinger 2001-2017
</metadata>
<g transform="translate(0.000000,200.000000) scale(0.100000,-0.100000)"
fill="#000000" stroke="none">
<path d="M765 1704 c41 -100 57 -164 62 -260 l6 -105 -94 70 c-115 87 -164
105 -269 99 -66 -4 -92 -11 -166 -47 -99 -47 -204 -109 -204 -119 0 -4 32 -22
71 -41 49 -24 98 -59 155 -114 86 -81 204 -242 188 -256 -5 -4 -93 -40 -197
-81 -103 -40 -187 -77 -187 -81 0 -4 92 -38 205 -76 l205 -67 -82 -45 c-97
-53 -95 -55 82 -65 210 -11 206 -10 227 -68 10 -28 32 -62 49 -78 36 -31 171
-90 207 -90 29 0 157 52 196 79 15 11 35 38 45 59 l18 40 109 7 c60 4 109 10
109 15 0 4 -16 15 -35 25 -19 11 -32 22 -29 25 3 3 63 21 132 41 70 20 127 40
127 45 0 10 -58 29 -119 39 l-38 6 178 109 c99 61 180 114 182 118 1 5 -37 12
-85 16 -48 4 -105 10 -126 13 l-39 6 74 69 73 69 -145 -6 c-80 -3 -161 -8
-181 -11 -33 -5 -37 -2 -49 25 -18 44 -96 113 -160 141 l-56 24 -17 101 c-30
180 -67 261 -140 305 -45 28 -174 69 -237 77 -50 6 -53 5 -45 -13z m371 -935
c-7 -116 -7 -120 12 -110 24 13 67 69 104 135 32 58 35 49 12 -42 -17 -67 -14
-83 11 -62 13 10 15 9 15 -9 0 -29 6 -27 53 15 32 30 41 34 48 22 23 -41 -61
-173 -104 -163 -19 5 -25 -3 -50 -68 -26 -72 -29 -75 -85 -104 -105 -56 -124
-59 -199 -28 -100 40 -118 56 -148 135 -21 56 -31 70 -44 65 -31 -10 -111 94
-111 145 0 28 6 26 41 -15 37 -42 49 -44 49 -8 0 25 1 25 18 10 35 -32 45 -22
37 42 -7 58 -6 59 32 96 l38 37 10 -113 10 -113 50 69 c47 63 177 185 198 185
6 0 7 -46 3 -121z"/>
</g>
</svg>
