<?xml version="1.0"?>
<svg xmlns="http://www.w3.org/2000/svg" viewBox="0 0 24 24">
    <path d="M 9.40625 2 L 10 3 L 10 8 L 8 9 L 8 4 L 8.59375 3 L 5.5 3 L 6.09375 4 L 6.09375 9 L 4.09375 8 L 3.09375 7 L 4.09375 9 L 6.09375 10 L 6.09375 13 L 5.5 14 L 8.6875 14 L 8.09375 13 L 8.09375 10 L 10.09375 9 L 10.09375 14 L 9.59375 15 L 12.6875 15 L 12.1875 14 L 12.1875 8 C 12.1875 8 14.0875 7.1 14.1875 7 L 14.1875 12 L 13.1875 11 L 14.3125 15.5 L 13.3125 15 L 15.09375 22 L 15.09375 17.6875 L 16.09375 18 L 15.09375 14 L 16.09375 15 L 16.09375 11 C 16.39375 11.4 17.09375 12 17.09375 12 C 17.39375 12 19.29375 11.4875 19.59375 11.1875 L 20.09375 7 C 20.09375 7 19.1875 4.7875 18.6875 4.1875 C 18.5875 4.1875 16.69375 4.9 16.09375 5 L 16.09375 4 L 14.09375 5 L 14.09375 6 L 12.09375 7 L 12.09375 3 L 12.6875 2 L 9.40625 2 z M 17.8125 5.40625 C 17.8125 5.40625 18.09375 8.8 18.09375 9 L 18.09375 10 C 18.09375 10 17.09375 11.1 17.09375 11 L 16.09375 10 L 16.09375 6 C 16.49375 5.9 17.7125 5.30625 17.8125 5.40625 z"/>
</svg>
