<?xml version="1.0" encoding="iso-8859-1"?>
<!-- Generator: Adobe Illustrator 19.2.0, SVG Export Plug-In . SVG Version: 6.00 Build 0)  -->
<svg xmlns="http://www.w3.org/2000/svg" xmlns:xlink="http://www.w3.org/1999/xlink" version="1.1" id="Layer_1" x="0px" y="0px" viewBox="0 0 40 40" style="enable-background:new 0 0 40 40;" xml:space="preserve">
<g>
	<g>
		<path style="fill:#DFF0FE;" d="M30.5,26.5c-1.654,0-3-1.346-3-3s1.346-3,3-3c2.49,0,3,0.732,3,1.833    C33.5,24.152,32.045,26.5,30.5,26.5z"/>
		<g>
			<path style="fill:#4788C7;" d="M30.5,21c2.5,0,2.5,0.739,2.5,1.333C33,23.848,31.707,26,30.5,26c-1.379,0-2.5-1.121-2.5-2.5     S29.121,21,30.5,21 M30.5,20c-1.933,0-3.5,1.567-3.5,3.5c0,1.933,1.567,3.5,3.5,3.5s3.5-2.734,3.5-4.667     C34,20.4,32.433,20,30.5,20L30.5,20z"/>
		</g>
	</g>
	<g>
		<path style="fill:#DFF0FE;" d="M9.5,26.5c-1.545,0-3-2.348-3-4.167c0-1.101,0.51-1.833,3-1.833c1.654,0,3,1.346,3,3    S11.154,26.5,9.5,26.5z"/>
		<g>
			<path style="fill:#4788C7;" d="M9.5,21c1.379,0,2.5,1.121,2.5,2.5S10.879,26,9.5,26C8.293,26,7,23.848,7,22.333     C7,21.739,7,21,9.5,21 M9.5,20C7.567,20,6,20.4,6,22.333C6,24.266,7.567,27,9.5,27s3.5-1.567,3.5-3.5C13,21.567,11.433,20,9.5,20     L9.5,20z"/>
		</g>
	</g>
</g>
<g>
	<g>
		<path style="fill:#FFFFFF;" d="M20,38.5c-1.269,0-2.446-0.526-3.315-1.483l-0.084-0.092l-0.118-0.042    C12.306,35.395,9.5,31.423,9.5,27V12.381c0-2.615,2.127-4.742,4.742-4.742h11.516c2.615,0,4.742,2.127,4.742,4.742V27    c0,4.423-2.806,8.395-6.982,9.883l-0.118,0.042l-0.084,0.092C22.446,37.974,21.269,38.5,20,38.5z"/>
	</g>
	<g>
		<path style="fill:#4788C7;" d="M25.758,8.139c2.339,0,4.242,1.903,4.242,4.242V27c0,4.213-2.672,7.995-6.65,9.412l-0.236,0.084    l-0.168,0.185C22.172,37.531,21.125,38,20,38s-2.172-0.469-2.946-1.32l-0.168-0.185l-0.236-0.084C12.672,34.995,10,31.213,10,27    V12.381c0-2.339,1.903-4.242,4.242-4.242H25.758 M25.758,7.139H14.242C11.347,7.139,9,9.486,9,12.381V27    c0,4.78,3.055,8.837,7.314,10.354C17.229,38.358,18.534,39,20,39s2.771-0.642,3.686-1.647C27.945,35.836,31,31.78,31,27V12.381    C31,9.486,28.653,7.139,25.758,7.139L25.758,7.139z"/>
	</g>
</g>
<circle style="fill:#4788C7;" cx="25.5" cy="22.5" r="1.5"/>
<circle style="fill:#4788C7;" cx="14.5" cy="22.5" r="1.5"/>
<g>
	<path style="fill:#4788C7;" d="M14.5,21c1.379,0,2.5,1.121,2.5,2.5S15.879,26,14.5,26S12,24.879,12,23.5S13.121,21,14.5,21    M14.5,20c-1.933,0-3.5,1.567-3.5,3.5s1.567,3.5,3.5,3.5s3.5-1.567,3.5-3.5S16.433,20,14.5,20L14.5,20z"/>
</g>
<g>
	<path style="fill:#4788C7;" d="M25.5,21c1.379,0,2.5,1.121,2.5,2.5S26.879,26,25.5,26S23,24.879,23,23.5S24.121,21,25.5,21    M25.5,20c-1.933,0-3.5,1.567-3.5,3.5s1.567,3.5,3.5,3.5s3.5-1.567,3.5-3.5S27.433,20,25.5,20L25.5,20z"/>
</g>
<rect x="17" y="23" style="fill:#4788C7;" width="6" height="1"/>
<polygon style="fill:#4788C7;" points="14,18 13,18 13,13.25 16,15.295 16,12.045 17,12.045 17,17.256 14,15.211 "/>
<g>
	<path style="fill:#B6DCFE;" d="M30.5,24.5v-4.082c0-3.816-2.283-5.918-6.429-5.918c-6.318,0-9.659-3.788-9.692-3.826l-0.224-0.26   l-0.323,0.115C13.788,10.545,9.5,12.143,9.5,17.81v6.69H9.347C8.791,22.998,6.5,16.605,6.5,13.226c0-6.752,5.155-8.271,6.961-8.271   h0.249l0.149-0.198C14.779,3.54,16.931,1.5,21,1.5c7.824,0,12.5,5.782,12.5,11.373c0,4.3-2.272,10.226-2.836,11.627H30.5z"/>
	<g>
		<path style="fill:#4788C7;" d="M21,2c7.794,0,12,5.602,12,10.873c0,3.005-1.144,6.846-2,9.299v-1.755    C31,16.279,28.539,14,24.072,14c-6.069,0-9.185-3.504-9.312-3.65l-0.448-0.523l-0.648,0.232C13.473,10.126,9,11.794,9,17.81v4.193    c-0.859-2.575-2-6.437-2-8.777c0-6.344,4.785-7.772,6.461-7.772h0.498l0.3-0.397C15.122,3.916,17.146,2,21,2 M21,1    c-4.794,0-7.007,2.752-7.539,3.454C11.357,4.454,6,6.243,6,13.226C6,17.191,9,25,9,25h1c0,0,0-5.664,0-7.19c0-5.38,4-6.81,4-6.81    s3.425,4,10.072,4C27.108,15,30,16.154,30,20.418C30,21.805,30,25,30,25h1c0,0,3-7.083,3-12.126C34,7.13,29.327,1,21,1L21,1z"/>
	</g>
</g>
<path style="fill:#4788C7;" d="M13.5,17L13.5,17c0.275,0,0.5,0.225,0.5,0.5v1c0,0.275-0.225,0.5-0.5,0.5h0  c-0.275,0-0.5-0.225-0.5-0.5v-1C13,17.225,13.225,17,13.5,17z"/>
</svg>
