<?xml version="1.0"?>
<svg xmlns="http://www.w3.org/2000/svg" version="1" viewBox="0 0 24 24" enable-background="new 0 0 24 24">
    <path style="text-indent:0;text-align:start;line-height:normal;text-transform:none;block-progression:tb;-inkscape-font-specification:Bitstream Vera Sans" d="M 4 2 C 2.3545455 2 1 3.3545455 1 5 C 1 6.6454545 2.3545455 8 4 8 L 5 8 L 5.25 8 L 5.25 8.03125 C 5.16778 8.0231811 5.0849265 8 5 8 C 3.9 8 2 9.5 2 9.5 C 2 9.5 3.9 11 5 11 C 5.2183824 11 5.4278606 10.956735 5.625 10.90625 L 6.8125 20.3125 C 6.9125 21.3125 7.8125 22 8.8125 22 L 15.3125 22 C 16.3125 22 17.1125 21.3125 17.3125 20.3125 L 18.40625 10.9375 C 18.592748 10.982199 18.795098 11 19 11 C 20.1 11 22 9.5 22 9.5 C 22 9.5 20.80029 8.4417159 19.65625 8 L 20 8 C 21.645455 8 23 6.6454545 23 5 C 23 3.3545455 21.645455 2 20 2 L 20 4 C 20.554545 4 21 4.4454545 21 5 C 21 5.5545455 20.554545 6 20 6 L 19 6 L 16.40625 4.90625 C 13.60625 3.70625 10.39375 3.70625 7.59375 4.90625 L 5 6 L 4 6 C 3.4454545 6 3 5.5545455 3 5 C 3 4.4454545 3.4454545 4 4 4 L 4 2 z M 7 12 L 11 13 C 11 13 10.6 15 9.5 15 C 7.8 15 7 12 7 12 z M 17 12 C 17 12 16.2 15 14.5 15 C 13.4 15 13 13 13 13 L 17 12 z M 11 18 L 13 18 C 13.6 18 14.2 18.40625 14.5 18.90625 L 14.65625 19.25 C 14.480519 19.096697 14.251518 19 14 19 C 13.447715 19 13 19.447715 13 20 L 11 20 C 11 19.447715 10.552285 19 10 19 C 9.7484818 19 9.519481 19.096697 9.34375 19.25 L 9.5 18.90625 C 9.8 18.40625 10.4 18 11 18 z" overflow="visible" enable-background="accumulate" font-family="Bitstream Vera Sans"/>
</svg>
