<?xml version="1.0"?>
<svg xmlns="http://www.w3.org/2000/svg" viewBox="0 0 64 64">
    <path d="M 32 2 C 27.662 2 23.678406 3.5424219 20.566406 6.1074219 C 20.406406 6.1854219 20.281594 6.3090781 20.183594 6.4550781 C 16.403594 9.7570781 14 14.598 14 20 L 11 20 C 8.243 20 6 22.243 6 25 L 6 56.585938 L 2 60.585938 C 1.426 61.159937 1.2564062 62.015625 1.5664062 62.765625 C 1.8764063 63.515625 2.6030625 64 3.4140625 64 L 14 64 C 15.103 64 16 63.103 16 62 L 16 58 L 16 56 L 16 49.816406 C 16.314 49.928406 16.648 50 17 50 L 17.382812 50 L 18.828125 52.894531 C 19.168125 53.576531 19.853188 54 20.617188 54 L 28 54 L 28 56.167969 C 27.474 56.341969 26.995813 56.643078 26.632812 57.080078 L 23.599609 60.720703 C 23.097609 61.323703 22.991219 62.138609 23.324219 62.849609 C 23.655219 63.559609 24.350766 64 25.134766 64 L 38.865234 64 C 39.649234 64 40.343781 63.559609 40.675781 62.849609 C 41.008781 62.139609 40.904344 61.323703 40.402344 60.720703 L 37.369141 57.080078 C 37.005141 56.643078 36.527953 56.341969 36.001953 56.167969 L 36.001953 54 L 43.382812 54 C 44.146813 54 44.831875 53.575531 45.171875 52.894531 L 46.617188 50 L 47 50 C 47.352 50 47.686 49.928406 48 49.816406 L 48 56 L 48 58 L 48 62 C 48 63.103 48.897 64 50 64 L 60.585938 64 C 61.397937 64 62.122594 63.515625 62.433594 62.765625 C 62.744594 62.015625 62.574 61.159938 62 60.585938 L 58 56.585938 L 58 25 C 58 22.243 55.757 20 53 20 L 50 20 C 50 10.075 41.925 2 32 2 z M 32 4 C 40.822 4 48 11.178 48 20 L 16 20 C 16 15.22 18.118125 10.934 21.453125 8 L 29 8 C 29.553 8 30 7.552 30 7 C 30 6.448 29.553 6 29 6 L 24.271484 6 C 26.564484 4.729 29.198 4 32 4 z M 33 6 C 32.447 6 32 6.448 32 7 C 32 7.552 32.447 8 33 8 L 37 8 C 37.553 8 38 7.552 38 7 C 38 6.448 37.553 6 37 6 L 33 6 z M 32 10 C 29.794 10 28 11.794 28 14 C 28 16.206 29.794 18 32 18 C 34.206 18 36 16.206 36 14 C 36 11.794 34.206 10 32 10 z M 32 12 C 33.103 12 34 12.897 34 14 C 34 15.103 33.103 16 32 16 C 30.897 16 30 15.103 30 14 C 30 12.897 30.897 12 32 12 z M 40 12 A 2 2 0 0 0 38 14 A 2 2 0 0 0 40 16 A 2 2 0 0 0 42 14 A 2 2 0 0 0 40 12 z M 11 22 L 14 22 L 14 30 L 8 30 L 8 25 C 8 23.346 9.346 22 11 22 z M 16 22 L 48 22 L 48 47 C 48 47.551 47.552 48 47 48 L 17 48 C 16.448 48 16 47.551 16 47 L 16 22 z M 50 22 L 53 22 C 54.654 22 56 23.346 56 25 L 56 30 L 50 30 L 50 22 z M 19 24 C 18.447 24 18 24.448 18 25 L 18 27 C 18 27.552 18.447 28 19 28 C 19.553 28 20 27.552 20 27 L 20 25 C 20 24.448 19.553 24 19 24 z M 24 24 C 23.447 24 23 24.448 23 25 L 23 27 C 23 27.552 23.447 28 24 28 C 24.553 28 25 27.552 25 27 L 25 25 C 25 24.448 24.553 24 24 24 z M 29 24 C 28.447 24 28 24.448 28 25 L 28 27 C 28 27.552 28.447 28 29 28 C 29.553 28 30 27.552 30 27 L 30 25 C 30 24.448 29.553 24 29 24 z M 35 24 C 34.447 24 34 24.448 34 25 L 34 27 C 34 27.552 34.447 28 35 28 C 35.553 28 36 27.552 36 27 L 36 25 C 36 24.448 35.553 24 35 24 z M 40 24 C 39.447 24 39 24.448 39 25 L 39 27 C 39 27.552 39.447 28 40 28 C 40.553 28 41 27.552 41 27 L 41 25 C 41 24.448 40.553 24 40 24 z M 45 24 C 44.447 24 44 24.448 44 25 L 44 27 C 44 27.552 44.447 28 45 28 C 45.553 28 46 27.552 46 27 L 46 25 C 46 24.448 45.553 24 45 24 z M 23 30 C 22.447 30 22 30.448 22 31 C 22 31.552 22.447 32 23 32 L 41 32 C 41.553 32 42 31.552 42 31 C 42 30.448 41.553 30 41 30 L 23 30 z M 8 32 L 14 32 L 14 47 L 14 56 L 8 56 L 8 32 z M 50 32 L 56 32 L 56 56 L 50 56 L 50 47 L 50 32 z M 28 34 C 26.897 34 26 34.897 26 36 L 26 44 C 26 45.103 26.897 46 28 46 L 36 46 C 37.103 46 38 45.103 38 44 L 38 36 C 38 34.897 37.103 34 36 34 L 28 34 z M 28 36 L 36 36 L 36.001953 44 L 28 44 L 28 36 z M 19.617188 50 L 44.382812 50 L 43.382812 52 L 36 52 L 28 52 L 20.617188 52 L 19.617188 50 z M 30 54 L 34 54 L 34 56 L 30 56 L 30 54 z M 7.4140625 58 L 14 58 L 14 62 L 3.4140625 62 L 7.4140625 58 z M 28.9375 58 L 35.064453 58 C 35.362453 58 35.641031 58.130375 35.832031 58.359375 L 38.873047 62 L 25.136719 62 L 28.169922 58.359375 C 28.359922 58.130375 28.6395 58 28.9375 58 z M 50 58 L 56.587891 58 L 60.595703 62 L 60.585938 62 L 50 62 L 50 58 z"/>
</svg>
