<?xml version="1.0" standalone="no"?>
<!DOCTYPE svg PUBLIC "-//W3C//DTD SVG 20010904//EN"
 "http://www.w3.org/TR/2001/REC-SVG-20010904/DTD/svg10.dtd">
<svg version="1.0" xmlns="http://www.w3.org/2000/svg"
 width="225.000000pt" height="225.000000pt" viewBox="0 0 225.000000 225.000000"
 preserveAspectRatio="xMidYMid meet">

<g transform="translate(0.000000,225.000000) scale(0.100000,-0.100000)"
fill="#000000" stroke="none">
<path d="M1016 2083 c-28 -4 -28 -6 -24 -54 3 -27 3 -49 1 -49 -2 0 -13 20
-24 45 -23 52 -27 55 -55 45 -14 -6 -24 -21 -29 -46 l-7 -37 -22 27 c-15 20
-29 27 -46 24 -24 -3 -25 -5 -22 -72 l4 -69 -29 21 c-15 12 -39 30 -53 41 -30
25 -44 26 -60 6 -10 -13 -11 -33 -1 -102 7 -48 14 -90 17 -95 10 -15 54 15 54
38 0 25 18 35 48 27 12 -3 37 0 56 7 31 10 36 16 36 43 0 31 0 31 16 9 21 -31
54 -29 54 3 0 27 15 34 24 10 6 -17 52 -19 155 -9 44 5 61 11 61 22 0 10 5 9
18 -6 23 -28 100 -40 108 -18 5 13 9 12 26 -9 11 -14 34 -27 56 -31 20 -4 44
-10 52 -14 8 -5 22 -4 32 1 23 12 48 1 48 -22 0 -10 13 -25 29 -34 36 -18 37
-17 47 104 5 66 4 85 -7 92 -23 15 -34 11 -81 -30 -36 -33 -51 -39 -83 -38
-37 2 -40 4 -43 34 -4 40 28 55 59 27 22 -20 37 -11 41 26 5 45 -83 67 -131
33 -24 -16 -24 -16 -18 6 4 17 0 24 -20 32 -28 10 -43 5 -43 -16 0 -9 -9 -5
-25 10 -18 19 -35 25 -70 25 -28 0 -45 -4 -45 -12 0 -9 -3 -9 -12 0 -12 12
-36 13 -92 5z m210 -29 c14 -17 8 -48 -12 -65 -12 -10 -11 -17 7 -45 l21 -34
-21 0 c-13 0 -26 12 -38 38 l-18 37 -3 -30 c-4 -35 -13 -47 -28 -37 -8 5 -10
33 -6 86 l5 78 41 -6 c22 -4 46 -13 52 -22z m-136 1 c0 -9 -10 -15 -26 -15
-19 0 -25 -5 -22 -17 2 -11 12 -18 27 -18 13 0 26 -6 28 -12 3 -8 -5 -13 -21
-13 -19 0 -26 -5 -26 -20 0 -15 7 -20 25 -20 16 0 25 -6 25 -15 0 -11 -11 -15
-39 -15 -35 0 -39 3 -45 31 -3 17 -6 53 -6 80 l0 49 40 0 c29 0 40 -4 40 -15z
m-122 -66 c30 -65 33 -89 12 -89 -4 0 -16 20 -26 46 -20 52 -34 43 -34 -23 0
-24 -4 -43 -8 -43 -4 0 -23 19 -41 43 l-33 42 3 -49 c3 -47 2 -51 -26 -62 -19
-8 -36 -9 -47 -3 -26 14 -66 -9 -70 -40 -6 -53 -23 -24 -33 57 -8 58 -8 86 0
92 6 5 36 -12 78 -47 l69 -56 -4 83 c-4 98 8 111 48 51 15 -23 31 -41 35 -41
5 0 9 19 9 43 0 38 13 67 30 67 3 0 20 -32 38 -71z m342 68 c0 -9 -22 -124
-26 -139 -3 -10 -12 -18 -21 -18 -12 0 -13 8 -8 43 12 79 26 117 40 117 8 0
15 -1 15 -3z m-207 -34 c-7 -2 -21 -2 -30 0 -10 3 -4 5 12 5 17 0 24 -2 18 -5z
m347 -8 c16 -19 3 -40 -15 -25 -25 21 -69 8 -79 -23 -14 -37 2 -61 44 -67 31
-5 33 -6 17 -22 -26 -25 -71 -6 -96 40 -15 28 1 86 27 102 26 14 88 12 102 -5z
m-208 -45 c-6 -15 -11 -19 -16 -12 -4 7 -1 18 6 26 17 19 20 14 10 -14z m-142
-10 c-8 -5 -22 -9 -30 -9 -10 0 -8 3 5 9 27 12 43 12 25 0z m470 -34 c0 -80
-11 -135 -26 -129 -8 3 -14 15 -14 27 0 31 -43 51 -70 34 -13 -9 -23 -9 -30
-2 -7 7 9 26 52 62 35 28 69 52 76 52 8 0 12 -15 12 -44z"/>
<path d="M1160 2025 c0 -20 4 -26 18 -23 9 2 17 12 17 23 0 11 -8 21 -17 23
-14 3 -18 -3 -18 -23z"/>
<path d="M690 1892 c0 -26 11 -34 27 -21 10 9 10 15 2 25 -16 19 -29 17 -29
-4z"/>
<path d="M1512 1908 c-8 -8 -9 -15 -1 -25 17 -20 29 -15 29 12 0 27 -9 32 -28
13z"/>
<path d="M490 1855 c-11 -13 -9 -20 9 -39 19 -21 20 -24 6 -36 -13 -11 -19
-10 -35 5 -23 20 -50 13 -57 -15 -3 -11 -11 -20 -17 -20 -19 0 -79 -89 -72
-106 3 -8 2 -12 -4 -9 -9 5 -47 -42 -39 -49 2 -2 28 -16 57 -31 28 -16 52 -34
52 -42 0 -19 -14 -16 -71 13 -40 20 -54 23 -65 13 -23 -19 -16 -46 17 -61 l31
-15 -36 -7 c-46 -9 -76 -47 -76 -99 0 -32 6 -46 34 -72 34 -31 34 -32 15 -56
-16 -21 -18 -22 -13 -3 3 12 -1 26 -11 34 -15 13 -20 11 -36 -9 -23 -28 -24
-59 -3 -89 23 -34 67 -29 98 11 27 33 34 31 15 -4 -7 -15 -7 -24 2 -35 9 -11
7 -14 -10 -14 -14 0 -29 -12 -42 -35 -25 -41 -34 -46 -17 -9 10 21 9 27 -3 35
-28 18 -48 10 -57 -23 -12 -44 4 -87 36 -99 23 -9 23 -11 9 -27 -44 -48 -23
-132 39 -158 20 -8 44 -13 53 -9 9 3 1 -6 -16 -20 -37 -29 -42 -59 -18 -104
23 -45 60 -52 120 -24 40 19 59 10 26 -13 -58 -41 -74 -60 -67 -82 10 -31 28
-28 86 14 63 45 68 24 10 -38 -22 -24 -40 -46 -40 -49 0 -3 8 -13 18 -23 18
-15 21 -15 46 5 22 17 29 19 42 8 13 -10 12 -15 -7 -35 -23 -25 -20 -50 7 -61
13 -5 33 11 76 58 60 66 66 84 35 103 -15 9 -22 6 -39 -14 -19 -24 -20 -24
-34 -5 -12 16 -12 21 1 35 8 9 15 20 15 24 0 16 -115 166 -128 166 -7 0 -35
-11 -62 -25 -29 -15 -51 -21 -55 -15 -9 15 -1 24 49 48 54 27 57 31 49 61 -4
17 -11 22 -29 18 -20 -3 -22 -1 -14 14 15 27 12 92 -5 116 -16 23 -78 48 -94
39 -5 -3 -4 5 2 18 11 24 12 24 19 5 5 -14 15 -19 30 -17 19 2 24 10 26 44 2
26 -2 47 -11 56 -13 12 -12 17 4 37 23 29 24 69 3 100 -16 22 -16 24 0 33 19
11 46 60 46 85 0 10 -7 31 -15 47 -18 35 -19 37 -1 30 23 -9 57 15 72 52 19
45 4 80 -48 109 -26 15 -34 25 -28 34 6 11 19 7 59 -22 60 -43 66 -44 82 -15
12 23 8 29 -64 83 -20 14 -25 24 -18 34 7 11 19 4 56 -34 l47 -47 21 21 21 21
-24 25 c-22 24 -23 27 -7 42 15 16 18 15 40 -5 29 -27 43 -28 57 -2 9 16 2 28
-46 80 -58 61 -82 72 -104 45z m89 -57 c32 -35 47 -59 41 -63 -7 -4 -23 3 -36
16 l-25 23 -26 -27 -27 -26 24 -26 c15 -16 20 -29 14 -35 -6 -6 -30 10 -67 48
-49 49 -56 61 -44 71 12 9 19 7 34 -12 l19 -24 29 23 29 23 -23 25 c-13 13
-20 30 -16 36 10 16 17 11 74 -52z m-169 -88 c-9 -17 -4 -24 40 -57 27 -20 50
-41 50 -45 0 -22 -27 -16 -67 16 -49 38 -58 42 -68 26 -8 -13 -25 -13 -25 1 0
18 51 79 67 79 11 0 11 -4 3 -20z m-43 -116 c66 -37 73 -43 73 -69 0 -30 -37
-75 -61 -75 -30 0 -119 49 -119 65 0 19 -2 20 65 -11 51 -24 58 -25 72 -11 23
23 11 42 -46 73 -50 27 -57 34 -44 47 9 9 7 10 60 -19z m-22 -179 c35 -34 33
-78 -5 -117 -26 -25 -36 -29 -63 -24 -38 7 -77 48 -77 79 0 22 24 65 44 79 24
17 77 8 101 -17z m-132 -171 c3 -4 2 -15 -3 -24 -7 -13 -5 -21 4 -29 11 -9 18
-4 35 24 22 38 27 40 65 25 20 -7 26 -16 26 -40 0 -36 -17 -73 -30 -65 -5 3
-6 21 -3 40 7 45 -11 46 -47 3 -25 -30 -30 -31 -54 -20 -20 9 -26 19 -26 45 0
41 14 59 33 41z m-11 -171 c-5 -46 24 -52 42 -9 8 19 24 37 36 41 40 13 76
-44 52 -82 -11 -17 -27 -2 -27 25 0 33 -18 29 -34 -7 -36 -77 -126 -26 -95 54
11 26 29 11 26 -22z m139 -122 c17 -18 29 -40 29 -56 0 -38 -50 -85 -90 -85
-82 0 -112 130 -37 160 40 16 68 10 98 -19z m59 -155 c0 -7 -14 -19 -30 -26
-51 -21 -79 -48 -73 -70 7 -27 33 -25 92 5 41 20 50 22 55 10 4 -11 -12 -24
-52 -44 -67 -33 -103 -28 -122 19 -16 39 -1 64 58 95 54 28 72 31 72 11z m104
-164 l45 -59 -22 -21 -21 -22 26 -27 27 -27 25 23 c16 15 26 19 31 11 6 -9
-75 -108 -96 -118 -20 -9 -18 23 2 44 l23 25 -28 27 -27 27 -25 -29 c-19 -21
-28 -26 -36 -18 -8 8 3 27 43 68 38 41 49 59 39 62 -8 3 -20 9 -26 13 -7 6
-28 -4 -57 -26 -25 -19 -50 -35 -56 -35 -26 0 -15 20 30 55 32 24 48 43 44 52
-5 14 1 33 10 33 2 0 24 -26 49 -58z"/>
<path d="M246 1394 c-28 -28 -19 -62 22 -83 19 -10 28 -10 48 4 44 28 22 95
-31 95 -13 0 -31 -7 -39 -16z m75 -20 c17 -21 0 -49 -31 -49 -27 0 -46 25 -37
49 8 21 51 21 68 0z"/>
<path d="M252 934 c-39 -27 -19 -94 29 -94 25 0 59 34 59 59 0 20 -34 51 -55
51 -6 0 -21 -7 -33 -16z m63 -33 c0 -31 -28 -50 -52 -35 -24 15 -26 29 -7 48
24 25 59 17 59 -13z"/>
<path d="M1648 1820 c-38 -27 -68 -54 -68 -59 0 -22 32 -35 59 -24 28 10 28
10 17 -18 -14 -39 4 -60 35 -41 24 15 39 8 21 -10 -16 -16 -15 -21 6 -46 9
-12 35 -46 57 -77 34 -49 43 -55 64 -50 25 6 25 6 7 -14 -25 -28 -17 -55 17
-59 26 -3 27 -5 11 -16 -16 -12 -16 -16 0 -82 10 -38 17 -87 17 -110 -2 -55
24 -87 69 -87 19 0 38 6 43 15 8 12 16 13 39 4 34 -13 48 1 48 50 0 36 -26 64
-61 64 -31 0 -43 -9 -62 -45 l-16 -30 1 35 c0 19 -3 49 -6 65 l-6 30 11 -28
c7 -19 16 -26 26 -23 8 3 19 6 24 6 5 0 9 8 10 18 0 10 3 12 6 5 2 -7 16 -13
29 -13 26 0 28 8 17 74 l-6 38 -49 -4 -48 -5 37 25 c21 14 40 27 42 28 2 2 -1
15 -7 29 -9 20 -19 25 -49 25 l-36 0 22 24 c18 19 22 31 17 52 -7 28 -9 28
-92 8 -23 -5 -27 -4 -17 6 9 10 9 18 1 34 -10 20 -10 20 8 4 14 -12 24 -14 37
-7 9 6 17 14 17 20 0 16 -52 89 -63 89 -6 0 -25 -11 -43 -25 -47 -36 -49 -31
-13 21 31 46 31 46 11 66 -18 19 -21 19 -50 4 -42 -22 -43 -21 -26 20 12 28
12 39 3 50 -19 23 -41 16 -111 -36z m96 25 c3 -8 -3 -35 -14 -60 -11 -25 -18
-45 -16 -45 2 0 25 9 51 21 71 31 77 14 25 -65 -24 -37 -47 -66 -51 -66 -20 0
-18 23 5 57 14 20 24 38 22 40 -1 2 -22 -6 -45 -18 -24 -11 -46 -18 -49 -14
-3 3 0 20 7 38 28 71 27 74 -18 38 -33 -27 -45 -31 -54 -21 -9 9 -7 16 12 28
14 9 43 31 65 49 47 37 52 38 60 18z m157 -176 c14 -20 18 -34 11 -41 -6 -6
-15 -2 -26 13 -21 30 -44 13 -27 -19 14 -27 14 -32 -3 -32 -8 0 -16 7 -20 15
-6 17 -15 19 -35 6 -12 -8 -12 -12 -2 -25 7 -9 10 -23 7 -32 -5 -14 -11 -11
-31 17 -14 18 -24 37 -23 41 3 9 110 87 120 88 4 0 16 -14 29 -31z m-42 -106
c2 -2 -3 -3 -12 -3 -9 0 -22 10 -28 23 l-12 22 24 -20 c13 -11 26 -21 28 -22z
m111 -6 c0 -8 -13 -27 -30 -43 -16 -16 -30 -32 -30 -36 0 -4 23 -8 52 -10 28
-2 53 -8 55 -14 2 -6 -26 -31 -62 -54 -52 -34 -69 -40 -75 -30 -6 10 3 21 31
39 l40 26 -56 3 -56 3 36 40 c41 45 41 55 1 39 -38 -14 -66 -13 -66 4 0 8 22
20 58 29 73 19 102 20 102 4z m79 -214 c14 -49 14 -53 -3 -53 -8 0 -16 10 -18
22 -2 13 -11 24 -20 26 -14 3 -18 -3 -18 -27 0 -37 -17 -41 -26 -6 -7 27 -12
29 -32 16 -9 -5 -11 -17 -6 -34 4 -20 2 -27 -9 -27 -15 0 -27 28 -27 66 0 17
11 23 63 36 87 22 85 22 96 -19z m-106 -99 c3 -4 2 -15 -4 -26 -14 -26 7 -54
27 -37 8 6 14 17 14 24 0 6 9 20 20 30 17 15 24 16 46 7 21 -10 25 -18 22 -50
-3 -39 -23 -47 -23 -9 0 34 -28 31 -45 -6 -27 -59 -90 -40 -90 27 0 40 15 58
33 40z"/>
<path d="M988 1683 c-8 -10 -18 -26 -21 -35 -4 -10 -12 -18 -19 -18 -6 0 -25
-12 -41 -27 -18 -17 -28 -21 -24 -12 9 25 -7 40 -50 46 -50 7 -97 -16 -118
-57 -47 -91 29 -197 124 -174 27 7 37 15 39 32 l3 23 31 -26 c16 -14 41 -28
55 -31 36 -9 99 12 122 43 l21 26 0 -32 c0 -29 2 -31 35 -31 33 0 35 2 35 35
0 31 3 35 25 35 14 0 34 9 45 20 l20 20 0 -55 0 -55 65 0 c54 0 66 3 75 20 6
11 21 20 35 20 15 0 26 -7 30 -20 8 -25 75 -30 75 -5 0 17 -68 184 -81 201 -5
6 -19 11 -31 10 -17 -1 -28 -18 -57 -86 l-36 -85 -5 85 c-5 83 -6 85 -30 84
-39 -2 -40 -3 -40 -26 l0 -22 -15 21 c-17 24 -73 37 -116 28 -24 -6 -29 -12
-29 -37 l0 -30 -26 31 c-14 17 -32 31 -40 31 -18 0 -18 9 2 31 9 10 13 23 9
28 -10 17 -50 13 -67 -6z m37 -23 c-10 -11 -24 -20 -32 -20 -11 0 -11 4 -3 20
6 11 20 20 32 20 20 0 21 -1 3 -20z m-157 -65 c2 -18 -2 -20 -38 -17 -23 2
-47 -1 -55 -8 -22 -18 -19 -76 5 -100 23 -23 29 -24 64 -10 22 8 26 7 26 -9 0
-39 -75 -42 -119 -5 -27 22 -31 32 -31 74 0 42 4 52 31 75 25 21 40 25 73 23
32 -2 42 -7 44 -23z m195 1 c91 -84 -5 -216 -118 -164 -29 13 -55 55 -55 88 0
28 26 77 47 89 34 20 98 13 126 -13z m170 12 c44 -35 21 -104 -38 -111 -24 -3
-30 -8 -31 -33 -2 -43 -3 -44 -19 -44 -15 0 -16 9 -16 115 0 90 -3 85 44 85
24 0 51 -6 60 -12z m97 -88 c0 -93 -1 -100 -20 -100 -19 0 -20 7 -20 100 0 93
1 100 20 100 19 0 20 -7 20 -100z m170 0 c33 -81 36 -96 22 -99 -9 -2 -23 6
-30 18 -20 29 -88 30 -97 1 -6 -19 -45 -29 -45 -11 0 8 11 34 66 159 23 53 42
38 84 -68z m-647 39 c35 -16 34 -60 -1 -77 -34 -16 -42 -15 -64 5 -22 20 -23
41 -1 65 19 21 33 22 66 7z"/>
<path d="M946 1568 c-43 -61 13 -140 79 -110 30 14 41 62 23 99 -18 39 -78 45
-102 11z m78 -7 c22 -25 17 -70 -9 -87 -46 -31 -90 50 -49 90 21 21 37 20 58
-3z"/>
<path d="M1165 1563 c1 -21 7 -29 23 -31 27 -4 40 22 22 43 -21 26 -47 19 -45
-12z m35 -8 c0 -8 -4 -15 -10 -15 -5 0 -10 7 -10 15 0 8 5 15 10 15 6 0 10 -7
10 -15z"/>
<path d="M1426 1528 c-9 -35 -8 -38 14 -38 20 0 25 15 14 44 -9 23 -21 20 -28
-6z"/>
<path d="M1062 1368 c-18 -18 -15 -48 6 -56 17 -7 16 -13 -15 -87 l-33 -80 0
88 0 87 -34 0 c-35 0 -35 0 -38 -51 l-3 -51 -40 51 c-34 43 -45 50 -70 48
l-30 -2 0 -110 0 -110 33 -3 32 -3 0 53 1 53 47 -53 c45 -51 49 -52 99 -52 42
0 54 4 63 20 7 13 21 20 40 20 20 0 31 -6 35 -20 7 -23 62 -29 70 -7 3 6 -13
55 -34 107 -38 94 -38 95 -19 113 34 33 19 52 -43 54 -33 2 -60 -2 -67 -9z
m106 -18 c-2 -11 -18 -15 -55 -16 -47 -1 -51 0 -43 16 12 23 102 23 98 0z m6
-140 c20 -50 36 -92 36 -95 0 -16 -43 -2 -47 15 -4 16 -14 20 -45 20 -31 0
-41 -4 -45 -20 -3 -13 -14 -20 -28 -20 -22 0 -22 1 15 91 35 85 54 114 71 103
4 -2 23 -44 43 -94z m-266 29 l52 -61 0 61 c0 54 2 61 20 61 19 0 20 -7 20
-95 0 -84 -2 -95 -17 -94 -10 0 -40 28 -68 62 l-50 61 -3 -62 c-3 -54 -6 -62
-22 -62 -18 0 -20 7 -20 95 0 86 2 95 18 95 11 0 42 -27 70 -61z"/>
<path d="M1103 1210 c-11 -28 -10 -30 14 -30 21 0 23 3 18 23 -12 36 -20 38
-32 7z"/>
<path d="M1257 1300 c-60 -48 -57 -152 6 -190 48 -30 110 -26 148 8 26 23 33
38 37 80 4 49 2 54 -31 87 -31 31 -41 35 -85 35 -34 0 -57 -6 -75 -20z m133
-12 c89 -61 30 -203 -76 -184 -43 9 -84 57 -84 99 1 89 87 134 160 85z"/>
<path d="M1290 1260 c-30 -30 -27 -83 6 -109 33 -26 45 -26 74 -3 31 25 32 88
1 113 -30 24 -56 24 -81 -1z m84 -32 c13 -36 -9 -78 -39 -78 -40 0 -63 54 -38
90 21 30 65 24 77 -12z"/>
<path d="M1911 1106 c-11 -14 -17 -58 -11 -81 2 -5 -1 -21 -7 -35 -18 -44 -23
-89 -11 -96 14 -9 126 -33 155 -34 17 0 23 8 31 46 5 25 8 53 5 63 -3 11 0 22
6 25 15 10 14 78 -1 99 -21 27 -63 32 -86 9 -18 -18 -19 -18 -31 -1 -13 23
-34 24 -50 5z m34 -36 c-5 -24 -3 -30 9 -30 9 0 22 11 28 25 16 36 56 44 80
15 21 -26 23 -49 5 -75 -18 -24 -41 -11 -25 14 12 20 5 51 -11 51 -5 0 -18
-13 -27 -30 -23 -38 -41 -44 -70 -25 -33 21 -31 85 3 85 11 0 13 -7 8 -30z
m77 -53 c-6 -7 -7 -18 -3 -25 9 -15 2 -62 -9 -62 -4 0 -5 11 -3 24 3 13 0 27
-5 30 -7 4 -5 17 6 36 9 16 19 25 20 19 2 -5 -1 -15 -6 -22z m-94 -57 c-4 -24
-1 -30 13 -30 10 0 21 9 24 20 9 29 28 25 23 -4 -3 -16 0 -27 9 -30 25 -10 31
-7 35 16 2 12 9 23 17 26 10 3 12 -5 6 -39 -4 -24 -8 -45 -10 -47 -1 -1 -37 5
-79 14 l-78 17 7 36 c8 42 13 51 27 51 6 0 8 -13 6 -30z m23 3 c-12 -20 -14
-14 -5 12 4 9 9 14 11 11 3 -2 0 -13 -6 -23z"/>
<path d="M763 1035 c-9 -19 -21 -35 -27 -35 -5 0 -23 -12 -38 -27 -27 -26 -28
-26 -28 -5 0 40 -66 55 -119 28 -89 -47 -78 -188 17 -217 50 -15 94 -2 102 30
l5 23 19 -21 c45 -50 145 -48 182 2 l15 22 -3 -25 c-3 -23 0 -25 32 -25 32 0
35 3 38 33 4 42 15 41 31 -3 17 -48 45 -47 68 3 l16 37 6 -35 6 -35 155 -3
c168 -3 211 7 227 52 6 18 8 16 13 -14 l5 -35 62 -3 c54 -3 63 0 73 18 14 27
60 27 67 0 4 -15 14 -20 39 -20 18 0 35 3 37 8 3 4 -14 53 -37 110 -32 81 -46
104 -64 108 -30 8 -33 5 -73 -95 l-34 -84 -3 84 c-2 46 -7 88 -12 93 -5 5 -20
6 -34 2 -22 -5 -26 -12 -26 -44 l0 -37 -19 31 c-11 19 -33 37 -53 43 -38 12
-106 12 -114 -1 -3 -5 -12 -4 -19 2 -7 6 -37 10 -67 8 l-53 -3 -5 -75 -5 -75
-8 59 c-10 74 -22 98 -50 94 -15 -2 -29 -17 -42 -45 -11 -24 -22 -43 -26 -43
-3 0 -11 18 -18 40 -9 29 -18 41 -37 46 -33 8 -43 -2 -52 -57 l-8 -44 -11 32
c-6 17 -24 39 -40 49 -15 10 -30 19 -32 21 -2 2 4 12 13 22 23 25 13 41 -25
41 -24 0 -32 -7 -46 -35z m52 -5 c-10 -11 -24 -20 -32 -20 -11 0 -11 4 -3 20
6 11 20 20 32 20 20 0 21 -1 3 -20z m-157 -68 c3 -19 0 -20 -26 -13 -48 14
-76 -6 -80 -56 -3 -36 1 -44 23 -59 22 -14 32 -16 56 -7 25 10 29 9 29 -7 0
-38 -75 -41 -118 -5 -67 56 -41 153 48 178 28 7 65 -9 68 -31z m183 11 c58
-35 62 -112 7 -158 -49 -41 -125 -30 -153 24 -23 46 -19 85 14 120 34 36 85
42 132 14z m154 -40 c11 -29 23 -53 26 -53 4 0 17 25 29 55 32 80 54 76 69
-12 7 -38 14 -83 17 -100 5 -28 3 -33 -14 -33 -17 0 -22 8 -27 48 -11 79 -15
81 -43 15 -14 -35 -29 -63 -33 -63 -3 0 -17 28 -30 62 -18 48 -24 57 -30 42
-4 -10 -8 -31 -8 -46 -1 -41 -11 -58 -33 -58 -16 0 -19 5 -14 23 3 12 11 57
18 100 10 70 14 78 32 75 14 -2 26 -19 41 -55z m275 42 c0 -10 -10 -15 -30
-15 -25 0 -30 -4 -30 -25 0 -21 5 -25 30 -25 20 0 30 -5 30 -15 0 -10 -10 -15
-29 -15 -23 0 -30 -5 -33 -25 -6 -30 -2 -35 34 -35 18 0 28 -5 28 -15 0 -11
-12 -15 -49 -15 l-50 0 -3 100 -3 100 53 0 c39 0 52 -4 52 -15z m166 -19 c43
-43 45 -83 6 -127 -21 -24 -38 -32 -76 -36 -29 -4 -51 -2 -55 5 -5 9 -6 74 -2
165 1 25 4 27 47 27 39 0 51 -5 80 -34z m104 -66 c0 -93 -1 -100 -20 -100 -19
0 -20 7 -20 100 0 93 1 100 20 100 19 0 20 -7 20 -100z m146 63 c9 -21 27 -66
40 -100 24 -63 24 -63 3 -63 -12 0 -23 8 -26 20 -4 16 -14 20 -48 20 -35 0
-45 -4 -50 -20 -5 -16 -45 -30 -45 -16 0 7 61 158 72 179 14 28 37 20 54 -20z
m-396 -29 c0 -23 -1 -24 -16 -10 -8 9 -20 14 -25 11 -5 -4 -15 -3 -21 2 -9 5
-1 10 22 14 19 4 36 7 38 8 1 0 2 -11 2 -25z m-649 3 c9 -7 18 -24 21 -38 4
-21 -1 -28 -23 -38 -37 -16 -67 -6 -75 25 -12 46 40 80 77 51z m649 -65 c0
-26 -2 -28 -35 -24 -43 5 -47 22 -5 22 20 0 30 5 30 15 0 8 2 15 5 15 3 0 5
-13 5 -28z"/>
<path d="M736 938 c-22 -31 -20 -74 4 -98 36 -36 84 -20 103 33 7 20 -9 68
-26 79 -24 15 -66 8 -81 -14z m76 -5 c10 -9 18 -27 18 -41 0 -26 -25 -62 -43
-62 -22 0 -47 34 -47 65 0 52 36 71 72 38z"/>
<path d="M1350 900 c0 -33 0 -63 -1 -67 -1 -19 33 -12 57 12 21 21 25 32 20
58 -7 35 -29 57 -58 57 -15 0 -18 -9 -18 -60z m48 28 c26 -26 8 -88 -25 -88
-9 0 -13 16 -13 50 0 51 12 64 38 38z"/>
<path d="M1641 900 c-14 -42 -14 -40 8 -40 27 0 30 10 16 44 l-12 29 -12 -33z"/>
<path d="M1862 868 c-19 -19 -14 -41 15 -65 l26 -23 -41 0 c-47 0 -74 -29 -51
-56 10 -12 9 -13 -4 -9 -10 5 -25 -8 -46 -38 l-30 -44 22 -20 c47 -42 125 -91
134 -84 6 3 22 24 37 45 19 28 23 42 15 52 -8 9 -5 11 10 7 29 -7 41 42 15 62
-18 14 -17 14 9 15 34 0 43 21 23 52 -16 24 -16 24 13 20 24 -3 29 0 35 23 4
15 6 29 4 30 -3 3 -162 45 -170 45 -2 0 -9 -5 -16 -12z m168 -55 c0 -16 -14
-16 -59 -3 -19 5 -37 8 -39 5 -2 -2 12 -19 32 -38 20 -19 36 -37 36 -41 0 -3
-25 -6 -57 -6 l-56 0 43 -31 c30 -22 39 -34 31 -42 -8 -8 -29 2 -76 34 -35 24
-63 49 -61 54 1 6 29 11 61 13 l58 3 -38 39 c-58 60 -44 73 49 46 43 -12 76
-26 76 -33z m-122 -172 c-7 -2 -18 -11 -25 -20 -7 -9 -13 -11 -13 -5 0 5 6 16
13 23 10 10 8 15 -8 27 -11 8 -24 13 -30 10 -6 -2 -11 4 -11 14 0 15 7 13 44
-13 26 -19 38 -33 30 -36z m-95 52 c4 -3 0 -17 -8 -30 -14 -21 -14 -24 1 -30
10 -4 22 1 30 11 17 24 38 11 22 -14 -9 -14 -9 -22 2 -34 12 -15 14 -15 27 4
13 18 43 28 43 14 0 -5 -24 -43 -46 -72 -1 -2 -32 17 -68 43 -42 30 -63 51
-59 58 39 60 43 64 56 50z"/>
<path d="M1700 605 c-10 -12 -11 -24 -2 -50 11 -38 6 -41 -32 -23 -22 9 -29 8
-45 -6 -19 -17 -18 -19 30 -94 28 -43 54 -78 58 -80 4 -1 16 7 26 18 16 17 17
25 7 40 -17 27 -15 32 7 20 39 -21 54 -13 48 24 -5 34 -5 35 18 24 26 -12 55
2 55 26 0 12 -135 116 -149 116 -5 0 -14 -7 -21 -15z m91 -51 c57 -43 72 -64
47 -64 -6 0 -26 11 -44 25 -18 14 -35 25 -38 25 -3 0 3 -22 14 -49 10 -27 16
-51 13 -54 -3 -4 -23 3 -45 14 -22 11 -42 18 -45 15 -3 -3 5 -21 17 -41 15
-24 19 -40 13 -46 -15 -15 -105 121 -92 138 9 10 21 7 60 -12 27 -14 49 -23
49 -20 0 3 -7 22 -15 42 -18 42 -19 73 -4 73 6 0 37 -21 70 -46z"/>
<path d="M657 401 c-86 -71 -85 -70 -62 -87 12 -9 30 -12 52 -8 26 5 34 3 39
-12 11 -35 21 -49 40 -53 10 -2 21 -7 24 -12 13 -19 54 -14 65 8 14 27 25 20
25 -14 0 -34 29 -41 50 -12 l18 23 4 -29 c2 -24 8 -31 30 -33 24 -3 27 0 33
40 3 24 7 68 8 98 2 52 1 55 -24 58 -19 2 -31 -4 -45 -25 l-18 -28 -11 40 c-9
31 -17 41 -36 42 -21 2 -29 -7 -59 -72 -19 -40 -36 -73 -37 -71 -2 1 2 42 9
90 9 73 9 89 -3 97 -25 16 -43 9 -102 -40z m93 -4 c0 -18 -3 -56 -7 -85 -4
-41 -9 -52 -22 -50 -9 2 -15 12 -13 23 3 28 -50 59 -69 39 -9 -9 -19 -10 -29
-4 -12 7 -10 12 10 28 14 11 45 36 70 55 24 20 48 33 52 31 4 -3 8 -20 8 -37z
m120 -56 c0 -69 9 -76 41 -31 52 71 67 52 53 -67 -5 -41 -11 -53 -24 -53 -14
0 -16 7 -9 48 4 26 6 48 4 50 -1 2 -17 -15 -35 -38 -17 -22 -36 -38 -41 -34
-5 3 -9 25 -9 50 0 55 -12 56 -35 4 -18 -40 -29 -48 -40 -31 -10 17 58 141 77
141 14 0 18 -8 18 -39z"/>
<path d="M697 372 c-13 -14 -15 -22 -7 -27 16 -10 33 9 28 30 -3 16 -5 15 -21
-3z"/>
<path d="M1482 439 c-22 -8 -23 -13 -17 -66 3 -32 8 -69 11 -82 5 -21 3 -23
-11 -11 -13 11 -19 10 -36 -6 -24 -22 -52 -10 -57 26 -4 27 14 41 44 34 28 -7
37 8 24 40 -7 19 -17 26 -35 26 -37 0 -82 -26 -90 -52 -7 -19 -8 -19 -17 -5
-9 18 -53 23 -62 9 -5 -8 -71 -8 -186 0 l-44 3 -8 -40 c-5 -22 -7 -65 -6 -95
l3 -55 53 -3 c53 -3 53 -3 50 25 -2 19 -10 29 -28 33 -24 6 -23 7 8 11 30 5
32 4 32 -26 0 -17 5 -36 12 -43 17 -17 47 -15 54 3 4 11 10 12 23 3 12 -7 34
-8 67 -2 43 8 49 12 52 37 3 26 4 26 25 12 27 -19 81 -19 115 -1 15 8 39 18
54 24 16 7 28 20 30 34 3 20 8 23 42 21 37 -3 66 10 66 27 0 4 -33 34 -73 67
-61 51 -76 59 -95 52z m45 -29 c73 -57 105 -92 92 -101 -8 -4 -19 -3 -26 3
-21 18 -73 -9 -73 -38 0 -14 -6 -24 -14 -24 -10 0 -15 22 -20 80 -9 103 -3
115 41 80z m-99 -47 c2 -9 -7 -13 -27 -13 -35 0 -56 -29 -47 -66 9 -35 42 -49
71 -30 31 20 35 20 35 -3 0 -29 -52 -47 -90 -31 -37 15 -50 37 -50 81 0 45 35
81 74 77 16 -2 31 -9 34 -15z m-139 -65 c18 -97 18 -107 5 -112 -17 -7 -20 -1
-29 54 -4 25 -9 55 -11 68 -3 13 -2 27 1 32 13 21 24 7 34 -42z m-211 36 c32
-9 27 -24 -8 -24 -23 0 -30 -4 -30 -20 0 -15 7 -20 25 -20 16 0 25 -6 25 -16
0 -12 -7 -15 -25 -12 -21 4 -25 1 -25 -18 0 -19 5 -24 25 -24 16 0 25 -6 25
-16 0 -13 -7 -15 -42 -9 -24 4 -44 8 -45 9 -1 1 1 36 4 79 6 83 10 87 71 71z
m140 -16 c17 -17 15 -44 -4 -62 -14 -15 -14 -18 5 -42 41 -52 13 -63 -30 -11
l-28 32 -1 -32 c0 -23 -5 -33 -15 -33 -10 0 -15 10 -15 34 0 18 -3 54 -6 80
l-7 46 45 0 c24 0 49 -5 56 -12z m35 -117 c-2 -3 -10 4 -17 15 -11 15 -12 22
-3 33 10 12 13 9 18 -15 3 -16 4 -31 2 -33z"/>
<path d="M1510 369 c0 -25 18 -45 30 -33 7 7 5 16 -10 29 -15 14 -20 15 -20 4z"/>
<path d="M1160 285 c0 -15 6 -25 14 -25 22 0 30 19 16 35 -18 22 -30 18 -30
-10z"/>
</g>
</svg>
