<?xml version="1.0"?>
<svg xmlns="http://www.w3.org/2000/svg" width="50" height="50" viewBox="0 0 50 50">
    <path d="M 25 1 C 23.895431 1 23 1.8954305 23 3 C 23 3.3649652 23.110492 3.7054558 23.28125 4 L 18.21875 13 L 7.71875 13 C 7.3727074 12.403104 6.7396043 12 6 12 C 4.8954305 12 4 12.895431 4 14 C 4 15.104569 4.8954305 16 6 16 C 6.1484265 16 6.2982914 15.999422 6.4375 15.96875 L 11.5625 25 L 6.4375 34.03125 C 6.2982914 34.000578 6.1484265 34 6 34 C 4.8954305 34 4 34.895431 4 36 C 4 37.104569 4.8954305 38 6 38 C 6.7396043 38 7.3727074 37.596896 7.71875 37 L 18.21875 37 L 23.28125 46 C 23.110492 46.294544 23 46.635035 23 47 C 23 48.104569 23.895431 49 25 49 C 26.104569 49 27 48.104569 27 47 C 27 46.635035 26.889508 46.294544 26.71875 46 L 31.78125 37 L 42.28125 37 C 42.627293 37.596896 43.260396 38 44 38 C 45.104569 38 46 37.104569 46 36 C 46 34.895431 45.104569 34 44 34 C 43.851574 34 43.701709 34.000578 43.5625 34.03125 L 38.4375 25 L 43.5625 15.96875 C 43.701709 15.999422 43.851574 16 44 16 C 45.104569 16 46 15.104569 46 14 C 46 12.895431 45.104569 12 44 12 C 43.260396 12 42.627293 12.403104 42.28125 13 L 31.78125 13 L 26.71875 4 C 26.889508 3.7054558 27 3.3649652 27 3 C 27 1.8954305 26.104569 1 25 1 z M 25 15 C 30.514 15 35 19.486 35 25 C 35 30.514 30.514 35 25 35 C 19.486 35 15 30.514 15 25 C 15 19.486 19.486 15 25 15 z M 25 17 C 20.589 17 17 20.589 17 25 C 17 29.411 20.589 33 25 33 C 29.411 33 33 29.411 33 25 C 33 20.589 29.411 17 25 17 z M 25 19 C 28.364 19 31 21.636 31 25 C 31 28.364 28.364 31 25 31 C 21.636 31 19 28.364 19 25 C 19 21.636 21.636 19 25 19 z M 25 21 C 22.757 21 21 22.757 21 25 C 21 27.243 22.757 29 25 29 C 27.243 29 29 27.243 29 25 C 29 22.757 27.243 21 25 21 z"/>
</svg>
