<?xml version="1.0" encoding="iso-8859-1"?>
<!-- Generator: Adobe Illustrator 16.0.0, SVG Export Plug-In . SVG Version: 6.00 Build 0)  -->
<!DOCTYPE svg PUBLIC "-//W3C//DTD SVG 1.1//EN" "http://www.w3.org/Graphics/SVG/1.1/DTD/svg11.dtd">
<svg version="1.1" id="Capa_1" xmlns="http://www.w3.org/2000/svg" xmlns:xlink="http://www.w3.org/1999/xlink" x="0px" y="0px"
	 width="952.432px" height="952.432px" viewBox="0 0 952.432 952.432" style="enable-background:new 0 0 952.432 952.432;"
	 xml:space="preserve">
<g>
	<g>
		<path d="M370.175,486.788c0-167.9,136.1-304,304-304c11.5,0,22.8,0.7,34,1.899c-2.3-2.5-11.6-7.8-14.8-9.3
			c-168.601-80.6-324.9,32.7-406.8,105.2c-14.2,12.6-11.8,35,4.399,44.9c36.8,22.5,0.7,124.399-63.6,93.8
			c-4-1.9-10.2-5.801-14.3-7.7c-91.7-43.5-219.8,62.7-212.8,74.1c9.6,15.601,86.8-74.6,285.4,157.3
			c134.9,157.301,270.5,168.9,353,159.4c8.2-0.9,29-6.1,33.3-11.7C505.075,789.487,370.175,653.888,370.175,486.788z"/>
		<path d="M927.175,371.288c-15-32.8-35.8-62-62-86.7c-27.1-25.6-58.6-45.2-93.8-58.3c-17.5-6.5-35.5-11.3-53.7-14.2
			c-5-0.8-10.1-1.5-15.1-2c-5.101-0.5-10.2-0.9-15.301-1.2c-5.1-0.2-10.199-0.3-15.199-0.3s-10,0.2-14.9,0.5
			c-5,0.3-9.9,0.8-14.9,1.3c-4.899,0.601-9.899,1.3-14.8,2.101c-4.899,0.8-9.8,1.8-14.7,2.899c-4.899,1.101-9.699,2.3-14.5,3.7
			c-2.199,0.6-4.3,1.3-6.5,1.9c-26.5,8.199-51.5,20.3-74.5,36c-47.6,32.5-83.5,78.199-103.699,132.399
			c-13.101,35.2-19,71.8-17.4,109.1c1.5,35.9,9.9,70.801,24.9,103.601s35.8,62,62,86.7c27.1,25.6,58.6,45.199,93.8,58.3
			c31.3,11.7,64.1,17.6,97.2,17.6c0.8,0,1.5,0,2.3,0c27.2-0.2,54.1-4.399,80.2-12.5c26.5-8.2,51.5-20.3,74.5-36
			c47.6-32.5,83.5-78.2,103.699-132.399c13.101-35.2,19-71.9,17.4-109.101C950.475,438.987,942.075,404.188,927.175,371.288z
			 M674.175,230.588c0.2,0,0.4,0,0.5,0c-25.5,5.3-50.5,14.9-74,28.7c-1.4,0.8-2.8,1.7-4.2,2.5c-14.6-1.4-35.7-0.3-61.1,9.7
			C576.375,245.088,624.575,230.588,674.175,230.588z M428.575,559.288c-15.2-51.4-14.5-108,5.699-162.101
			c8.2-21.899,19.101-42.1,32.101-60.199c0.2,8.6,2.399,19.5,8.899,38.199c-16.6,32-25.8,68.5-26.8,107
			c-0.5,20.7,1.4,37.7,3.2,48.601C442.975,541.188,433.575,552.987,428.575,559.288z M479.975,536.987c-10.3-28.199-8-61.399-2.8-90
			c1.9-10.8,4.6-21.399,8.2-31.8c1.899-5.7,4.1-11.399,6.6-16.899c1.4-3.101,4.9-14.5,7.9-15.9l72-32.8l104.6,89.7l-17.1,101.199
			l-125.101,54.7c-2.1,0.7-11.3-7.2-13.199-8.5c-4.2-3-8.101-6.2-12-9.399c-7.5-6.301-14.2-13.2-19.601-21.4
			C485.475,549.788,482.375,543.487,479.975,536.987z M619.375,736.888c-11.7-2.6-23.3-6-34.8-10.3
			c-35.4-13.2-66.2-33.5-91.301-58.601c13.4,6.601,28,11.5,40.101,15c30.899,29.301,65.3,45,92.2,53.301
			C623.175,736.688,621.175,736.788,619.375,736.888z M748.274,699.888c-19.899,12.2-42,20.4-62.5,26c-6.8-0.4-17.5-1.4-30.5-4
			c-5-1-10.3-2.2-15.899-3.8c-24-6.601-57-19.9-86.9-46.601c-6-19.5-6.6-40.699-6.2-54.5l122.7-53.6l19.2,9.3l63.5,30.7
			L748.274,699.888z M722.475,416.888l-28.2,4.6l-105.1-89.999l22-49.2c27-16.2,117.6-34,117.6-34c50.9,26.399,74.2,50.7,83.2,62.2
			l-26.2,96.199L722.475,416.888z M893.375,619.088c-22.2,36.8-52.8,66.6-88.4,87.7c-0.399-0.4-1.2-0.7-2.3-0.9
			c-8.9-1.4-20.5-5.2-29.3-8.4l3.5-98.8l69.2-72l63.5,7.601C912.475,558.188,899.375,601.188,893.375,619.088z M911.075,509.288
			l-62.5-7.5l-40.101-83.4l26.3-96.5c14.4,3.9,33.2,9.101,45.101,12.4c19.1,25.8,33.2,55.1,41.5,86.1
			C923.875,452.388,916.274,489.188,911.075,509.288z"/>
	</g>
</g>
<g>
</g>
<g>
</g>
<g>
</g>
<g>
</g>
<g>
</g>
<g>
</g>
<g>
</g>
<g>
</g>
<g>
</g>
<g>
</g>
<g>
</g>
<g>
</g>
<g>
</g>
<g>
</g>
<g>
</g>
</svg>
