<?xml version="1.0" standalone="no"?>
<!DOCTYPE svg PUBLIC "-//W3C//DTD SVG 20010904//EN"
 "http://www.w3.org/TR/2001/REC-SVG-20010904/DTD/svg10.dtd">
<svg version="1.0" xmlns="http://www.w3.org/2000/svg"
 width="512.000000pt" height="512.000000pt" viewBox="0 0 512.000000 512.000000"
 preserveAspectRatio="xMidYMid meet">

<g transform="translate(0.000000,512.000000) scale(0.100000,-0.100000)"
fill="#000000" stroke="none">
<path d="M0 2560 l0 -2560 2560 0 2560 0 0 2560 0 2560 -2560 0 -2560 0 0
-2560z m3614 1466 c40 -24 78 -76 89 -126 3 -14 -38 -414 -92 -890 -55 -476
-98 -866 -97 -868 2 -1 72 30 156 70 171 80 211 87 273 49 44 -27 73 -93 63
-146 -14 -71 -44 -90 -380 -245 l-315 -145 -1 -142 0 -143 -95 0 -95 0 0 -70
0 -70 -95 0 -95 0 0 70 0 70 -370 0 -370 0 0 -70 0 -70 -95 0 -95 0 0 70 0 70
-95 0 -94 0 -3 142 -3 142 -312 146 c-171 80 -321 154 -333 165 -27 24 -50 75
-50 110 0 41 37 103 73 122 61 32 109 22 271 -56 82 -39 150 -70 151 -69 2 2
-42 392 -96 868 -76 667 -96 873 -89 900 14 51 44 91 87 117 l38 23 1014 0
1014 0 41 -24z"/>
<path d="M2269 3271 c-36 -37 -38 -79 -5 -117 62 -73 179 2 142 91 -26 62 -89
74 -137 26z"/>
<path d="M2747 3289 c-27 -16 -49 -73 -38 -101 11 -28 38 -53 68 -62 26 -8 78
16 93 43 39 74 -51 162 -123 120z"/>
<path d="M1925 2799 c-66 -58 -44 -140 66 -245 97 -92 220 -157 379 -200 90
-24 290 -24 380 0 159 43 282 108 379 200 73 70 101 119 101 175 0 32 -6 44
-35 70 -20 17 -45 31 -57 31 -12 0 -61 -18 -109 -41 -49 -22 -120 -48 -159
-57 l-70 -17 0 -77 0 -78 -100 0 -100 0 0 70 0 70 -40 0 -40 0 0 -70 0 -70
-100 0 -100 0 0 78 0 77 -70 17 c-38 9 -110 35 -159 57 -50 23 -100 41 -111
41 -10 0 -35 -14 -55 -31z"/>
<path d="M2470 1910 c0 -85 2 -94 42 -175 23 -47 45 -85 48 -85 3 0 25 38 48
85 40 81 42 90 42 175 l0 90 -90 0 -90 0 0 -90z"/>
</g>
</svg>
