<?xml version="1.0" encoding="iso-8859-1"?>
<!-- Generator: Adobe Illustrator 19.0.0, SVG Export Plug-In . SVG Version: 6.00 Build 0)  -->
<svg version="1.1" id="Layer_1" xmlns="http://www.w3.org/2000/svg" xmlns:xlink="http://www.w3.org/1999/xlink" x="0px" y="0px"
	 viewBox="0 0 502.155 502.155" style="enable-background:new 0 0 502.155 502.155;" xml:space="preserve">
<g transform="translate(1 1)">
	<g>
		<g>
			<path d="M389.974,26.086c-1.211-0.909-2.641-1.373-4.053-1.407c-4.915-4.475-10.298-8.505-16.091-12.022
				c-14.269-8.393-27.698-12.59-41.128-13.43C259.876-3.291,212.033,15.175,190.21,52.945l-2.518,3.357
				c-4.197,7.554-9.233,15.108-14.269,22.662l-60.433,105.757c-17.626,31.056-34.413,57.075-52.039,78.898
				c-18.466,23.502-38.61,61.272-31.895,109.954c5.806,38.707,31.457,69.461,66.641,83.536l24.848,25.579l0.839,0.839
				c10.911,8.393,23.502,14.269,35.252,15.948c5.875,0.839,11.751,1.679,17.626,1.679c20.144,0,41.128-5.036,62.951-16.787
				c33.574-16.787,61.272-45.325,80.577-80.577l36.931-68.826c5.036-10.072,13.429-18.466,23.502-26.02
				c52.039-36.931,86.452-130.938,88.131-135.974C498.25,91.555,394.171,28.604,389.974,26.086z M45.004,371.056
				c-5.875-42.807,12.59-76.38,28.538-97.364c18.466-22.662,36.092-48.682,53.718-80.577l60.433-104.918
				c5.036-7.554,10.072-15.948,14.269-23.502l2.518-4.197c17.626-29.377,56.236-45.325,112.472-45.325c3.357,0,6.715,0,10.911,0
				c10.072,0.839,20.984,4.197,31.895,10.911c6.457,3.766,12.306,8.312,17.417,13.465c0.303,0.564,0.652,1.115,1.049,1.643
				c5.036,5.036,9.233,10.911,12.59,16.787l0.839,1.679c0.839,2.518,2.518,5.036,3.357,7.554l0.048,0.012
				c1.425,3.807,2.538,7.73,3.309,11.739c3.357,13.43,4.197,27.698,3.357,40.289c-1.679,22.662-10.911,44.485-26.859,62.112
				l-83.095,92.328l-53.718,73.023c-10.072,13.43-21.823,30.216-31.056,47.843c-10.719,20.417-26.096,36.164-42.917,45.003
				c-8.87,4.46-17.95,7.036-26.748,7.036c-1.679,0-3.357,0-5.036,0c-10.911-0.839-20.984-3.357-31.056-7.554
				c-1.542-0.386-3.261-0.411-4.913-0.007C68.918,426.538,49.258,401.442,45.004,371.056z M451.246,166.257
				c-0.839,0.839-34.413,94.007-82.256,128.42c-12.59,9.233-21.823,19.305-28.538,31.895l-36.931,68.826
				c-17.626,32.734-42.807,57.915-73.862,73.862c-24.341,12.59-48.682,16.787-70.505,13.43c-9.233-0.839-18.466-5.036-27.698-11.751
				l-6.346-6.346c1.546,0.185,3.101,0.344,4.667,0.471c1.679,0,3.357,0,5.036,0c25.34,0,51.155-13.873,70.955-37.275
				c6.592-7.549,12.39-16.105,17.175-25.675c0,0,0-0.001,0.001-0.001c9.233-16.787,20.144-31.895,29.377-45.325l53.718-70.505
				l82.256-92.328c18.466-20.984,29.377-46.164,31.056-72.184c0.839-15.108,0-30.216-3.357-45.325
				c-0.984-4.499-2.282-8.878-3.859-13.122C438.078,86.848,467.961,124.471,451.246,166.257z"/>
			<path d="M277.502,124.289c18.466,0,33.574-15.108,33.574-33.574s-15.108-33.574-33.574-33.574s-33.574,15.108-33.574,33.574
				S259.036,124.289,277.502,124.289z M277.502,73.929c9.233,0,16.787,7.554,16.787,16.787s-7.554,16.787-16.787,16.787
				s-16.787-7.554-16.787-16.787S268.269,73.929,277.502,73.929z"/>
			<path d="M235.535,275.371c18.466,0,33.574-15.108,33.574-33.574S254,208.224,235.535,208.224s-33.574,15.108-33.574,33.574
				S217.069,275.371,235.535,275.371z M235.535,225.011c9.233,0,16.787,7.554,16.787,16.787s-7.554,16.787-16.787,16.787
				s-16.787-7.554-16.787-16.787S226.302,225.011,235.535,225.011z"/>
			<path d="M101.24,367.699c18.466,0,33.574-15.108,33.574-33.574s-15.108-33.574-33.574-33.574s-33.574,15.108-33.574,33.574
				S82.774,367.699,101.24,367.699z M101.24,317.338c9.233,0,16.787,7.554,16.787,16.787s-7.554,16.787-16.787,16.787
				s-16.787-7.554-16.787-16.787S92.007,317.338,101.24,317.338z"/>
			<path d="M201.961,157.863c5.036,0,8.393-3.357,8.393-8.393c0-4.197-3.357-8.393-8.393-8.393s-8.393,3.357-8.393,8.393
				S196.925,157.863,201.961,157.863z"/>
			<path d="M185.174,334.125c5.036,0,8.393-3.357,8.393-8.393c0-4.197-3.357-8.393-8.393-8.393s-8.393,3.357-8.393,8.393
				S180.138,334.125,185.174,334.125z"/>
			<path d="M395.01,208.224c-5.036,0-8.393,3.357-8.393,8.393s3.357,8.393,8.393,8.393c5.036,0,8.393-3.357,8.393-8.393
				C403.404,212.42,400.046,208.224,395.01,208.224z"/>
			<path d="M294.289,342.519c-5.036,0-8.393,3.357-8.393,8.393c0,5.036,3.357,8.393,8.393,8.393s8.393-3.357,8.393-8.393
				C302.682,346.715,299.325,342.519,294.289,342.519z"/>
		</g>
	</g>
</g>
<g>
</g>
<g>
</g>
<g>
</g>
<g>
</g>
<g>
</g>
<g>
</g>
<g>
</g>
<g>
</g>
<g>
</g>
<g>
</g>
<g>
</g>
<g>
</g>
<g>
</g>
<g>
</g>
<g>
</g>
</svg>
