<?xml version="1.0"?>
<svg xmlns="http://www.w3.org/2000/svg" viewBox="0 0 80 80">
    <path style="line-height:normal;text-indent:0;text-align:start;text-decoration-line:none;text-decoration-style:solid;text-decoration-color:#000;text-transform:none;block-progression:tb;isolation:auto;mix-blend-mode:normal" d="M 34 8 C 32.475206 8 31.207573 8.9164332 30.242188 10.142578 C 29.276801 11.368723 28.521593 12.957701 27.884766 14.691406 C 26.695159 17.93 25.973547 21.599563 25.533203 24.279297 C 23.297002 24.719741 21.284588 25.222488 19.867188 25.871094 C 19.072035 26.234957 18.413991 26.62931 17.902344 27.119141 C 17.390696 27.608971 17 28.257815 17 29 C 17 29.642421 17.296878 30.224632 17.703125 30.675781 C 18.109372 31.12693 18.632324 31.491143 19.255859 31.826172 C 20.50293 32.496229 22.17844 33.045148 24.222656 33.509766 C 24.256933 33.517556 24.295596 33.523511 24.330078 33.53125 C 24.126714 33.913216 24 34.339796 24 34.800781 C 24 35.450638 24.193614 36.00244 24.353516 36.546875 C 24.433466 36.819092 24.510374 37.073356 24.5625 37.265625 C 24.61463 37.457894 24.625 37.643858 24.625 37.5 C 24.625 38.860791 25.765491 39.921144 27.107422 39.96875 C 27.141984 40.68949 27.236998 41.393037 27.382812 42.078125 C 25.678945 42.391904 24.116445 43.2913 22.876953 44.15625 C 21.347889 45.223272 20.289063 46.296875 20.289062 46.296875 L 19.634766 46.958984 L 22.636719 50.390625 C 20.680232 51.628265 18.744979 53.366009 17.1875 55.242188 C 15.362469 57.440666 14 59.78017 14 62 L 14 71 L 66 71 L 66 62 C 66 59.762716 64.672847 57.377215 62.884766 55.144531 C 61.353822 53.232922 59.449434 51.467175 57.513672 50.21875 L 60.365234 46.958984 L 59.710938 46.296875 C 59.710938 46.296875 58.652111 45.223272 57.123047 44.15625 C 55.883555 43.2913 54.321055 42.391904 52.617188 42.078125 C 52.762959 41.39305 52.858021 40.689405 52.892578 39.96875 C 54.234907 39.921144 55.375 38.860791 55.375 37.5 C 55.375 37.643858 55.38537 37.45789 55.4375 37.265625 C 55.48963 37.073356 55.566533 36.819092 55.646484 36.546875 C 55.806386 36.00244 56 35.450638 56 34.800781 C 56 34.339796 55.873286 33.913216 55.669922 33.53125 C 55.704404 33.523511 55.743067 33.517556 55.777344 33.509766 C 57.82156 33.045148 59.49707 32.496229 60.744141 31.826172 C 61.367676 31.491143 61.890628 31.12693 62.296875 30.675781 C 62.703122 30.224632 63 29.642421 63 29 C 63 28.257815 62.609304 27.608971 62.097656 27.119141 C 61.586009 26.62931 60.927964 26.234957 60.132812 25.871094 C 58.715412 25.222488 56.702998 24.719741 54.466797 24.279297 C 54.026453 21.599563 53.304841 17.93 52.115234 14.691406 C 51.478407 12.957701 50.7232 11.368723 49.757812 10.142578 C 48.792426 8.9164332 47.524794 8 46 8 C 44.277778 8 43.039526 8.610505 42.128906 9.1308594 C 41.218286 9.6512138 40.666667 10 40 10 C 39.333333 10 38.781714 9.6512138 37.871094 9.1308594 C 36.960474 8.610505 35.722222 8 34 8 z M 34 10 C 35.277778 10 36.039526 10.389495 36.878906 10.869141 C 37.718286 11.348786 38.666667 12 40 12 C 41.333333 12 42.281714 11.348786 43.121094 10.869141 C 43.960474 10.389495 44.722222 10 46 10 C 46.731206 10 47.43598 10.426348 48.1875 11.380859 C 48.93902 12.335371 49.643984 13.764893 50.238281 15.382812 C 51.426876 18.618651 52.197123 22.595695 52.611328 25.226562 A 1.0001 1.0001 0 0 0 53.423828 26.054688 C 55.928714 26.50344 57.969335 27.082133 59.300781 27.691406 C 59.966505 27.996043 60.450398 28.311283 60.714844 28.564453 C 60.97929 28.817623 61 28.945185 61 29 C 61 29.04783 60.9904 29.138122 60.810547 29.337891 C 60.630661 29.537659 60.286621 29.80131 59.796875 30.064453 C 58.817383 30.590739 57.271018 31.12029 55.333984 31.560547 C 54.600763 31.727196 53.794126 31.877529 52.955078 32.019531 C 52.869118 32.029975 52.778423 32.03797 52.732422 32.056641 C 49.17599 32.642547 44.77465 33 40 33 C 35.22535 33 30.82401 32.642547 27.267578 32.056641 C 27.221577 32.03797 27.130882 32.029976 27.044922 32.019531 C 26.205874 31.877529 25.399237 31.727196 24.666016 31.560547 C 22.728982 31.12029 21.182617 30.590739 20.203125 30.064453 C 19.713379 29.80131 19.369339 29.537659 19.189453 29.337891 C 19.009567 29.138122 19 29.047829 19 29 C 19 28.94518 19.02071 28.817623 19.285156 28.564453 C 19.549602 28.311283 20.033495 27.996043 20.699219 27.691406 C 22.030665 27.082133 24.071286 26.50344 26.576172 26.054688 A 1.0001 1.0001 0 0 0 26.902344 25.933594 L 27.455078 25.980469 L 28.050781 25.310547 L 27.871094 24.433594 L 27.607422 24.199219 L 27.570312 24.175781 C 28.010767 21.602528 28.715483 18.231093 29.761719 15.382812 C 30.356016 13.764893 31.06098 12.335371 31.8125 11.380859 C 32.56402 10.426348 33.268794 10 34 10 z M 51.023438 25.277344 L 50.675781 25.333984 L 50.582031 25.367188 L 49.958984 26.011719 L 50.101562 26.896484 L 50.896484 27.310547 L 51.244141 27.253906 L 51.337891 27.220703 L 51.960938 26.578125 L 51.818359 25.693359 L 51.023438 25.277344 z M 31.015625 25.726562 L 30.130859 25.876953 L 29.722656 26.673828 L 30.117188 27.478516 L 30.431641 27.638672 L 30.527344 27.667969 L 31.410156 27.517578 L 31.818359 26.720703 L 31.423828 25.916016 L 31.111328 25.755859 L 31.015625 25.726562 z M 47.201172 26.330078 L 46.849609 26.337891 L 46.751953 26.357422 L 46.044922 26.908203 L 46.0625 27.804688 L 46.791016 28.326172 L 47.144531 28.318359 L 47.242188 28.298828 L 47.949219 27.748047 L 47.931641 26.853516 L 47.201172 26.330078 z M 34.859375 26.623047 L 34.007812 26.902344 L 33.720703 27.75 L 34.228516 28.488281 L 34.5625 28.601562 L 34.662109 28.615234 L 35.513672 28.335938 L 35.800781 27.488281 L 35.291016 26.75 L 34.957031 26.636719 L 34.859375 26.623047 z M 42.927734 26.884766 L 42.828125 26.890625 L 42.052734 27.341797 L 41.949219 28.230469 L 42.599609 28.847656 L 42.951172 28.886719 L 43.050781 28.880859 L 43.824219 28.431641 L 43.927734 27.541016 L 43.277344 26.925781 L 42.927734 26.884766 z M 38.8125 26.974609 L 38.003906 27.359375 L 37.826172 28.238281 L 38.425781 28.90625 L 38.771484 28.974609 L 38.871094 28.976562 L 39.679688 28.591797 L 39.855469 27.712891 L 39.257812 27.046875 L 38.912109 26.976562 L 38.8125 26.974609 z M 26.787109 34.033203 C 26.805789 34.042303 26.810841 34.043887 26.832031 34.054688 C 26.999341 34.139978 27.236729 34.273148 27.494141 34.423828 L 29 35.304688 L 29 34.333984 C 29.694545 34.424143 30.407706 34.50918 31.144531 34.582031 C 31.060085 34.822501 31 35.085436 31 35.400391 C 31 37.388391 32.791 39 35 39 C 37.209 39 39 37.388391 39 35.400391 C 39 35.248382 38.969547 35.122381 38.949219 34.988281 C 39.29998 34.991996 39.645164 35 40 35 C 40.354836 35 40.70002 34.991996 41.050781 34.988281 C 41.030453 35.122381 41 35.248382 41 35.400391 C 41 37.388391 42.791 39 45 39 C 47.209 39 49 37.388391 49 35.400391 C 49 35.085436 48.939915 34.822501 48.855469 34.582031 C 49.592294 34.50918 50.305455 34.424143 51 34.333984 L 51 35.304688 L 52.505859 34.423828 C 52.763271 34.273148 53.000659 34.139974 53.167969 34.054688 C 53.189159 34.043887 53.194211 34.042323 53.212891 34.033203 C 53.672602 34.079607 54 34.399535 54 34.800781 C 54 34.875921 53.881114 35.462857 53.728516 35.982422 C 53.652216 36.242205 53.572874 36.502206 53.507812 36.742188 C 53.442751 36.982169 53.375 37.146642 53.375 37.5 C 53.375 37.764393 53.156381 38 52.8125 38 L 51 38 L 51 39.367188 C 51 44.789366 47.089008 49.269071 41.941406 50.1875 L 41.658203 50.236328 L 41.443359 50.431641 C 41.05178 50.78762 40.558016 51 40 51 C 39.441984 51 38.948039 50.788155 38.556641 50.431641 L 38.34375 50.236328 L 38.058594 50.185547 C 32.911121 49.268058 29 44.789367 29 39.367188 L 29 38 L 27.1875 38 C 26.845222 38 26.625 37.764393 26.625 37.5 C 26.625 37.146642 26.55725 36.982169 26.492188 36.742188 C 26.427128 36.502206 26.347783 36.242205 26.271484 35.982422 C 26.118886 35.462857 26 34.875925 26 34.800781 C 26 34.399535 26.3274 34.079612 26.787109 34.033203 z M 27.957031 44.009766 C 28.943559 46.590481 30.724649 48.765933 33.009766 50.244141 C 33.066583 54.434291 34.578229 59.136004 36.072266 62.871094 C 37.400817 66.192472 38.560608 68.402212 38.878906 69 L 34.568359 69 L 24.419922 60.857422 L 29.314453 54.984375 L 22.425781 47.113281 C 22.793968 46.769712 23.075407 46.457073 24.021484 45.796875 C 25.193411 44.979073 26.664882 44.21466 27.957031 44.009766 z M 52.042969 44.009766 C 53.335118 44.21466 54.806589 44.979073 55.978516 45.796875 C 56.924593 46.457073 57.206032 46.769712 57.574219 47.113281 L 50.685547 54.984375 L 55.580078 60.857422 L 45.431641 69 L 41.121094 69 C 41.439392 68.402212 42.599183 66.192472 43.927734 62.871094 C 45.421302 59.137177 46.930563 54.437205 46.988281 50.248047 C 49.274506 48.768955 51.056286 46.592075 52.042969 44.009766 z M 35.058594 51.322266 C 35.819716 51.638059 36.614491 51.891795 37.443359 52.058594 C 38.147243 52.620412 39.022065 53 40 53 C 40.973713 53 41.842622 52.620911 42.544922 52.064453 C 43.377998 51.897512 44.176688 51.643621 44.941406 51.326172 C 44.663726 54.814069 43.380296 58.858828 42.072266 62.128906 C 41.034204 64.72406 40.523988 65.599152 40 66.621094 C 39.476012 65.599152 38.965796 64.72406 37.927734 62.128906 C 36.619206 58.857584 35.335612 54.811062 35.058594 51.322266 z M 56.179688 51.740234 C 57.958606 52.844642 59.858578 54.564463 61.324219 56.394531 C 62.956637 58.432847 64 60.641284 64 62 L 64 69 L 48.626953 69 L 58.419922 61.142578 L 53.314453 55.015625 L 56.179688 51.740234 z M 23.972656 51.916016 L 26.685547 55.015625 L 21.580078 61.142578 L 31.373047 69 L 16 69 L 16 62 C 16 60.69783 17.059844 58.527303 18.726562 56.519531 C 20.221202 54.719051 22.159083 53.019453 23.972656 51.916016 z" font-weight="400" font-family="sans-serif" white-space="normal" overflow="visible"/>
</svg>
