<?xml version="1.0"?>
<svg xmlns="http://www.w3.org/2000/svg" viewBox="0 0 32 32">
    <path style="text-indent:0;text-align:start;line-height:normal;text-transform:none;block-progression:tb;-inkscape-font-specification:Sans" d="M 22 2.3125 L 21.0625 4.625 L 19.65625 8.09375 L 15.9375 8.375 L 13.4375 8.53125 L 15.34375 10.125 L 18.21875 12.53125 L 17.3125 16.15625 L 16.71875 18.59375 L 18.8125 17.25 L 22 15.28125 L 25.1875 17.25 L 27.28125 18.59375 L 26.6875 16.15625 L 25.78125 12.53125 L 28.65625 10.125 L 30.5625 8.53125 L 28.0625 8.375 L 24.34375 8.09375 L 22.9375 4.625 L 22 2.3125 z M 22 7.6875 L 22.71875 9.4375 L 22.9375 10.03125 L 23.5625 10.0625 L 25.4375 10.1875 L 24 11.40625 L 23.53125 11.8125 L 23.65625 12.40625 L 24.125 14.25 L 22.53125 13.25 L 22 12.90625 L 21.46875 13.25 L 19.875 14.25 L 20.34375 12.40625 L 20.46875 11.8125 L 20 11.40625 L 18.5625 10.1875 L 20.4375 10.0625 L 21.0625 10.03125 L 21.3125 9.4375 L 22 7.6875 z M 13.09375 10.84375 C 7.20575 12.89375 3 18.329 3 23 L 5 23 C 5 19.197 9.0275 13.822 14.9375 12.375 L 13.09375 10.84375 z M 15.59375 14.8125 C 11.52475 17.9955 10 23.42 10 28 L 12 28 C 12 26.823 12.16175 22.316 14.59375 18.75 L 14.78125 18.09375 L 15.59375 14.8125 z M 9.21875 17.375 C 9.21875 17.375 6 21.362555 6 27 L 8 27 C 8 22.123445 10.78125 18.625 10.78125 18.625 L 9.21875 17.375 z" overflow="visible" font-family="Sans"/>
</svg>
