<?xml version="1.0"?>
<svg xmlns="http://www.w3.org/2000/svg" viewBox="0 0 50 50">
    <path style="line-height:normal;text-indent:0;text-align:start;text-decoration-line:none;text-decoration-style:solid;text-decoration-color:#000;text-transform:none;block-progression:tb;isolation:auto;mix-blend-mode:normal" d="M 9 2 C 8.3855 2 7.9354387 2.2060702 7.3398438 2.5117188 C 6.7442488 2.8173671 6.0844729 3.2539853 5.4511719 3.8300781 C 4.1845697 4.9822639 3 6.7438191 3 9 C 3 13.237494 5.9499175 16.014275 7.5273438 17.201172 C 7.2857186 17.493897 7.0207878 17.842889 6.6816406 18.345703 C 5.9551179 19.422833 5.0875698 20.873796 4.2480469 22.621094 C 2.5690009 26.115689 1 30.7979 1 36 A 1.0001 1.0001 0 0 0 1.4316406 36.822266 C 6.1623206 40.097351 12.426969 41.648602 13.404297 41.878906 C 14.373191 43.168605 18.436658 48 25 48 C 31.714489 48 35.743384 43.032932 36.583984 41.890625 C 37.590424 41.677764 44.365822 40.16239 48.621094 36.783203 A 1.0001 1.0001 0 0 0 49 36 C 49 30.7979 47.430999 26.115689 45.751953 22.621094 C 44.91243 20.873796 44.044882 19.422833 43.318359 18.345703 C 42.979212 17.842889 42.714281 17.493897 42.472656 17.201172 C 44.050082 16.014275 47 13.237494 47 9 C 47 6.7438191 45.81543 4.9822639 44.548828 3.8300781 C 43.915527 3.2539853 43.255751 2.8173673 42.660156 2.5117188 C 42.064561 2.20607 41.6145 2 41 2 C 40.546833 2 40.207274 2.210344 39.976562 2.40625 C 39.745852 2.602156 39.580118 2.8126867 39.421875 3.0332031 C 39.105389 3.474236 38.826399 3.9716793 38.529297 4.4433594 C 38.232194 4.9150394 37.918575 5.3544017 37.632812 5.6308594 C 37.347051 5.907317 37.143635 5.9945786 36.96875 6 A 1.0004882 1.0004882 0 0 0 36.599609 6.0839844 C 35.141755 4.8528685 33.257747 4 31 4 C 28.688929 4 27.018623 4.5425788 25.921875 5.1132812 C 25.546101 5.3088187 25.253263 5.509128 25 5.6972656 C 24.746737 5.509128 24.453899 5.3088186 24.078125 5.1132812 C 22.981377 4.5425788 21.311071 4 19 4 C 16.742253 4 14.858245 4.8528685 13.400391 6.0839844 A 1.0004882 1.0004882 0 0 0 13.03125 6 C 12.856365 5.9945786 12.652949 5.907317 12.367188 5.6308594 C 12.081423 5.3544017 11.767806 4.9150394 11.470703 4.4433594 C 11.173601 3.9716793 10.894611 3.474236 10.578125 3.0332031 C 10.419882 2.8126867 10.254148 2.602156 10.023438 2.40625 C 9.7927251 2.210344 9.4531667 2 9 2 z M 8.8398438 4.0625 C 8.8797528 4.1085123 8.898354 4.1228937 8.953125 4.1992188 C 9.1678887 4.4984982 9.4513995 4.9891957 9.7792969 5.5097656 C 10.107194 6.0303356 10.481077 6.5890045 10.976562 7.0683594 C 11.226204 7.3098727 11.521264 7.5387685 11.857422 7.7089844 C 11.138435 8.6120513 10.537255 9.5852927 10.056641 10.556641 C 9.127131 12.435227 8.629958 14.14233 8.3535156 15.285156 C 7.0211681 14.176324 5 12.013063 5 9 C 5 7.4431809 5.8154303 6.2051111 6.7988281 5.3105469 C 7.2905271 4.8632647 7.8182512 4.5145859 8.2539062 4.2910156 C 8.5960378 4.11544 8.7668904 4.0884421 8.8398438 4.0625 z M 41.160156 4.0625 C 41.233106 4.088442 41.403962 4.11544 41.746094 4.2910156 C 42.181749 4.5145859 42.709473 4.8632647 43.201172 5.3105469 C 44.18457 6.2051111 45 7.4431809 45 9 C 45 12.013063 42.978832 14.176324 41.646484 15.285156 C 41.370042 14.14233 40.872869 12.435227 39.943359 10.556641 C 39.462745 9.5852928 38.861565 8.6120512 38.142578 7.7089844 C 38.478736 7.5387686 38.773795 7.3098727 39.023438 7.0683594 C 39.518923 6.5890045 39.892806 6.0303356 40.220703 5.5097656 C 40.548601 4.9891957 40.832111 4.4984981 41.046875 4.1992188 C 41.101645 4.1228938 41.120245 4.1085128 41.160156 4.0625 z M 19 6 C 21.001929 6 22.331248 6.4574212 23.15625 6.8867188 C 23.740902 7.1909477 23.9773 7.3956267 24.101562 7.5175781 A 1.0001 1.0001 0 0 0 24.994141 8.0292969 A 1.0001 1.0001 0 0 0 25.896484 7.5175781 C 26.02004 7.3960748 26.257259 7.1919045 26.84375 6.8867188 C 27.668752 6.4574212 28.998071 6 31 6 C 32.785096 6 34.168117 6.6332251 35.341797 7.6347656 C 36.515477 8.6363062 37.448406 10.024611 38.150391 11.443359 C 39.473896 14.118235 39.9393 16.739538 39.990234 17.041016 A 1.0001 1.0001 0 0 0 40.382812 17.798828 C 40.443712 17.865091 41.016602 18.510722 41.660156 19.464844 C 42.269255 20.367882 42.998119 21.589677 43.71875 23.033203 A 1.0001 1.0001 0 0 0 43.234375 23.357422 C 43.234375 23.357422 40.714431 26.259542 37.71875 27.140625 A 1.0001 1.0001 0 1 0 38.28125 29.058594 C 41.688948 28.05633 44.080992 25.427735 44.566406 24.865234 C 44.981739 25.849732 45.365208 26.915184 45.703125 28.039062 A 1.0001 1.0001 0 0 0 45.271484 28.314453 C 45.271484 28.314453 42.376212 31.413593 36.708984 33.142578 A 1.0002998 1.0002998 0 1 0 37.291016 35.056641 C 42.233544 33.54875 45.234575 31.072022 46.253906 30.132812 C 46.63421 31.828776 46.887265 33.624929 46.929688 35.484375 C 43.493559 37.984008 38.027771 39.460997 36.464844 39.851562 C 36.045395 39.19599 34.832227 37.268881 33.392578 34.423828 C 31.689244 31.057675 30.041942 26.895658 30.005859 24.097656 C 30.747588 24.716131 31.850334 25.276614 33.199219 24.791016 C 37.399219 23.391016 37 19 37 19 L 29.023438 22.988281 A 1.0001 1.0001 0 0 0 28.984375 22.986328 A 1.0001 1.0001 0 0 0 28 24 C 28 25.896939 28.533869 28.007722 29.296875 30.099609 C 28.089775 30.346718 26.118869 31 25 31 C 23.875191 31 21.928977 30.339673 20.705078 30.095703 C 21.467282 28.005149 22 25.895708 22 24 A 1.0001 1.0001 0 0 0 20.984375 22.986328 A 1.0001 1.0001 0 0 0 20.927734 22.990234 L 13 19.025391 C 13 19.025391 12.600781 23.416406 16.800781 24.816406 C 18.148767 25.301681 19.250455 24.741031 19.992188 24.123047 C 19.946908 26.920834 18.305834 31.067402 16.607422 34.423828 C 15.186986 37.230913 13.994963 39.130055 13.541016 39.841797 C 11.994989 39.431294 6.9692705 37.987153 3.0742188 35.460938 C 3.1183452 33.610277 3.3700874 31.82347 3.7480469 30.134766 C 4.7705883 31.076329 7.7714958 33.550287 12.708984 35.056641 A 1.0002998 1.0002998 0 1 0 13.291016 33.142578 C 7.623787 31.413593 4.7285156 28.314453 4.7285156 28.314453 A 1.0001 1.0001 0 0 0 4.2988281 28.039062 C 4.636202 26.915283 5.0185995 25.849604 5.4335938 24.865234 C 5.9190077 25.427735 8.3110527 28.05633 11.71875 29.058594 A 1.0001 1.0001 0 1 0 12.28125 27.140625 C 9.2855686 26.259542 6.765625 23.357422 6.765625 23.357422 A 1.0001 1.0001 0 0 0 6.28125 23.03125 C 7.0016259 21.588418 7.7309665 20.367554 8.3398438 19.464844 C 8.9833977 18.510722 9.5562691 17.865107 9.6171875 17.798828 A 1.0001 1.0001 0 0 0 10.007812 17.054688 C 10.052819 16.786397 10.516476 14.137694 11.849609 11.443359 C 12.551594 10.024611 13.484523 8.6363062 14.658203 7.6347656 C 15.831883 6.6332251 17.214904 6 19 6 z M 18.949219 8.9980469 A 1.0001 1.0001 0 0 0 18.851562 10.988281 C 21.77833 11.42734 24.316406 13.730469 24.316406 13.730469 A 1.0004428 1.0004428 0 0 0 24.335938 13.746094 A 1.0004428 1.0004428 0 0 0 24.378906 13.783203 A 1.0004428 1.0004428 0 0 0 24.412109 13.808594 A 1.0004428 1.0004428 0 0 0 24.464844 13.84375 A 1.0004428 1.0004428 0 0 0 24.503906 13.869141 A 1.0004428 1.0004428 0 0 0 24.541016 13.888672 A 1.0004428 1.0004428 0 0 0 24.59375 13.914062 A 1.0004428 1.0004428 0 0 0 24.634766 13.931641 A 1.0004428 1.0004428 0 0 0 24.691406 13.951172 A 1.0004428 1.0004428 0 0 0 24.730469 13.962891 A 1.0004428 1.0004428 0 0 0 24.775391 13.974609 A 1.0004428 1.0004428 0 0 0 24.835938 13.986328 A 1.0004428 1.0004428 0 0 0 24.886719 13.992188 A 1.0004428 1.0004428 0 0 0 24.910156 13.996094 A 1.0004428 1.0004428 0 0 0 24.916016 13.996094 A 1.0004428 1.0004428 0 0 0 25.009766 14 A 1.0004428 1.0004428 0 0 0 25.101562 13.994141 A 1.0004428 1.0004428 0 0 0 25.109375 13.994141 A 1.0004428 1.0004428 0 0 0 25.113281 13.994141 A 1.0004428 1.0004428 0 0 0 25.195312 13.980469 A 1.0004428 1.0004428 0 0 0 25.208984 13.978516 A 1.0004428 1.0004428 0 0 0 25.216797 13.976562 A 1.0004428 1.0004428 0 0 0 25.296875 13.955078 A 1.0004428 1.0004428 0 0 0 25.304688 13.953125 A 1.0004428 1.0004428 0 0 0 25.310547 13.951172 A 1.0004428 1.0004428 0 0 0 25.384766 13.923828 A 1.0004428 1.0004428 0 0 0 25.398438 13.917969 A 1.0004428 1.0004428 0 0 0 25.408203 13.914062 A 1.0004428 1.0004428 0 0 0 25.46875 13.882812 A 1.0004428 1.0004428 0 0 0 25.521484 13.853516 A 1.0004428 1.0004428 0 0 0 25.572266 13.820312 A 1.0004428 1.0004428 0 0 0 25.578125 13.816406 A 1.0004428 1.0004428 0 0 0 25.648438 13.761719 A 1.0004428 1.0004428 0 0 0 25.652344 13.757812 A 1.0004428 1.0004428 0 0 0 25.679688 13.734375 A 1.0004428 1.0004428 0 0 0 25.683594 13.730469 C 25.683594 13.730469 28.221671 11.42734 31.148438 10.988281 A 1.0001 1.0001 0 0 0 31.021484 8.9980469 A 1.0001 1.0001 0 0 0 30.851562 9.0117188 C 28.196527 9.410014 26.040656 10.873345 25 11.695312 C 23.959344 10.873345 21.803473 9.4100141 19.148438 9.0117188 A 1.0001 1.0001 0 0 0 18.949219 8.9980469 z M 14.958984 13.072266 A 1.0001 1.0001 0 0 0 14.841797 15.0625 C 17.326145 15.458393 20.234988 16.64905 22.292969 18.707031 A 1.0001 1.0001 0 1 0 23.707031 17.292969 C 21.265012 14.85095 18.007855 13.541997 15.158203 13.087891 A 1.0001 1.0001 0 0 0 14.958984 13.072266 z M 35.011719 13.072266 A 1.0001 1.0001 0 0 0 34.841797 13.087891 C 31.992145 13.541997 28.734988 14.85095 26.292969 17.292969 A 1.0001 1.0001 0 1 0 27.707031 18.707031 C 29.765012 16.64905 32.673855 15.458393 35.158203 15.0625 A 1.0001 1.0001 0 0 0 35.011719 13.072266 z M 19.626953 32.740234 C 19.735281 32.83669 19.859445 32.92588 20.007812 33 C 22.004247 33.99772 23.979181 36.958984 24 36.990234 A 1.0001 1.0001 0 0 0 24 37 C 24 38.448257 22.824805 39.673838 21.09375 40.59375 C 19.428899 41.47848 17.361928 41.950625 16.160156 41.986328 C 15.672653 41.460154 15.360006 41.03934 15.230469 40.859375 C 15.561558 40.346248 16.811849 38.450032 18.392578 35.326172 C 18.809916 34.501423 19.228237 33.629769 19.626953 32.740234 z M 30.376953 32.748047 C 30.774585 33.634732 31.191356 34.503937 31.607422 35.326172 C 33.080278 38.236851 34.321047 40.21005 34.783203 40.933594 C 34.573226 41.207051 34.350798 41.473421 33.851562 41.984375 C 32.865429 41.946623 30.77189 41.479043 29.052734 40.589844 C 28.156595 40.126333 27.357226 39.556189 26.818359 38.941406 C 26.279492 38.326623 26 37.706531 26 37 C 26 37 27.993 34.003 30 33 C 30.145008 32.927558 30.270259 32.841924 30.376953 32.748047 z M 25.023438 39.875 C 25.119619 40.004029 25.208939 40.139387 25.314453 40.259766 C 26.08543 41.139358 27.08303 41.821245 28.134766 42.365234 C 29.386515 43.012677 30.679077 43.444071 31.849609 43.707031 C 30.150082 44.916608 27.838533 46 25 46 C 22.061312 46 19.77003 44.918026 18.138672 43.738281 C 19.393824 43.481429 20.753666 43.040258 22.03125 42.361328 C 23.182619 41.749471 24.273553 40.917648 25.023438 39.875 z"/>
</svg>
