<?xml version="1.0" encoding="iso-8859-1"?>
<!-- Generator: Adobe Illustrator 19.2.0, SVG Export Plug-In . SVG Version: 6.00 Build 0)  -->
<svg xmlns="http://www.w3.org/2000/svg" xmlns:xlink="http://www.w3.org/1999/xlink" version="1.1" id="Layer_1" x="0px" y="0px" viewBox="0 0 40 40" style="enable-background:new 0 0 40 40;" xml:space="preserve">
<g>
	
		<rect x="27.55" y="18.379" transform="matrix(0.7071 -0.7071 0.7071 0.7071 -4.7696 28.4853)" style="fill:#B6DCFE;" width="8.9" height="3.243"/>
	<path style="fill:#4788C7;" d="M34,16.414L35.586,18L30,23.586L28.414,22L34,16.414 M34,15l-7,7l3,3l7-7L34,15L34,15z"/>
</g>
<g>
	
		<rect x="34.362" y="15.557" transform="matrix(0.7074 -0.7068 0.7068 0.7074 -1.9528 29.64)" style="fill:#4788C7;" width="0.919" height="3.243"/>
	<polygon style="fill:#4788C7;" points="34,15 32.643,16.357 35.643,19.357 37,18 34,15  "/>
</g>
<g>
	
		<rect x="21.55" y="12.379" transform="matrix(0.7071 -0.7071 0.7071 0.7071 -2.2843 22.4853)" style="fill:#B6DCFE;" width="8.9" height="3.243"/>
	<path style="fill:#4788C7;" d="M28,10.414L29.586,12L24,17.586L22.414,16L28,10.414 M28,9l-7,7l3,3l7-7L28,9L28,9z"/>
</g>
<g>
	
		<rect x="28.362" y="9.557" transform="matrix(0.7074 -0.7068 0.7068 0.7074 0.5325 23.6432)" style="fill:#4788C7;" width="0.919" height="3.243"/>
	<polygon style="fill:#4788C7;" points="28,9 26.643,10.357 29.643,13.357 31,12 28,9  "/>
</g>
<g>
	<path style="fill:#DFF0FE;" d="M28.35,30L9.312,10.963l1.357-1.357L4.781,3.717l0.65-0.65l5.889,5.888l2.23-2.231   c0.129-0.129,0.301-0.2,0.483-0.2s0.354,0.071,0.483,0.2L37.793,30H28.35z"/>
	<path style="fill:#4788C7;" d="M14.034,7.025c0.035,0,0.085,0.009,0.13,0.054L36.586,29.5h-8.029L10.02,10.963l0.65-0.65l0.65-0.65   l0.707-0.707l1.877-1.877C13.949,7.034,13.999,7.025,14.034,7.025 M5.432,2.36L4.074,3.717L5.07,4.712l4.893,4.893l-1.357,1.357   L28.143,30.5H39L14.871,6.371c-0.231-0.231-0.534-0.347-0.837-0.347s-0.606,0.116-0.837,0.347L11.32,8.249L5.432,2.36L5.432,2.36z"/>
</g>
<g>
	
		<rect x="14.793" y="10.793" transform="matrix(0.7071 -0.7071 0.7071 0.7071 -3.3848 13.8283)" style="fill:#4788C7;" width="0.414" height="0.414"/>
	<polygon style="fill:#4788C7;" points="15,10 14,11 15,12 16,11 15,10  "/>
</g>
<g>
	
		<rect x="17.792" y="13.793" transform="matrix(0.7071 -0.7071 0.7071 0.7071 -4.6275 16.8281)" style="fill:#4788C7;" width="0.414" height="0.414"/>
	<polygon style="fill:#4788C7;" points="18,13 17,14 18,15 19,14 18,13  "/>
</g>
<g>
	
		<rect x="20.793" y="16.793" transform="matrix(0.7071 -0.7071 0.7071 0.7071 -5.87 19.8284)" style="fill:#4788C7;" width="0.414" height="0.414"/>
	<polygon style="fill:#4788C7;" points="21,16 20,17 21,18 22,17 21,16  "/>
</g>
<g>
	
		<rect x="23.793" y="19.793" transform="matrix(0.7071 -0.7071 0.7071 0.7071 -7.1125 22.8287)" style="fill:#4788C7;" width="0.414" height="0.414"/>
	<polygon style="fill:#4788C7;" points="24,19 23,20 24,21 25,20 24,19  "/>
</g>
<g>
	
		<rect x="26.793" y="22.793" transform="matrix(0.7071 -0.7071 0.7071 0.7071 -8.3551 25.8287)" style="fill:#4788C7;" width="0.414" height="0.414"/>
	<polygon style="fill:#4788C7;" points="27,22 26,23 27,24 28,23 27,22  "/>
</g>
<g>
	
		<rect x="29.793" y="25.793" transform="matrix(0.7071 -0.7071 0.7071 0.7071 -9.5977 28.8287)" style="fill:#4788C7;" width="0.414" height="0.414"/>
	<polygon style="fill:#4788C7;" points="30,25 29,26 30,27 31,26 30,25  "/>
</g>
<g>
	<path style="fill:#98CCFD;" d="M3.354,15.646C3.299,15.599,2.5,14.958,2.5,14c0-0.002,0.055-0.848,1.496-2.29l0.999-0.999   l19.268,19.791l-6.056,0.017L3.354,15.646z"/>
	<path style="fill:#4788C7;" d="M4.99,11.424l18.091,18.583l-4.668,0.013L3.708,15.293L3.66,15.248l-0.041-0.033   c-0.006-0.005-0.59-0.485-0.618-1.184c0.022-0.112,0.197-0.814,1.349-1.966L4.99,11.424 M5,10l-1.357,1.357C1.979,13.021,2,14,2,14   c0,1.229,1,2,1,2l15,15.02L25.445,31L5,10L5,10z"/>
</g>
<g>
	<polygon style="fill:#B6DCFE;" points="23.207,30.5 4.209,11.501 5.5,10.207 5.5,5.752 30.13,30.5  "/>
	<g>
		<path style="fill:#4788C7;" d="M6,6.964L28.927,30h-5.513L4.915,11.501l0.793-0.795L6,10.413V10V6.964 M5,4.542V10l-1.498,1.502    L23,31h8.333L5,4.542L5,4.542z"/>
	</g>
</g>
<path style="fill:#B6DCFE;" d="M1,38h38V27.877C37.692,27.614,36.148,27,35,27c-1.458,0-3.563,1-5,1c-1.438,0-3.542-1-5-1  s-3.563,1-5,1c-1.438,0-3.542-1-5-1s-3.563,1-5,1c-1.438,0-3.542-1-5-1c-1.148,0-2.692,0.614-4,0.877V38z"/>
<g>
	<path style="fill:#4788C7;" d="M35,27c-1.458,0-3.563,1-5,1c-1.438,0-3.542-1-5-1s-3.563,1-5,1c-1.438,0-3.542-1-5-1s-3.563,1-5,1   c-1.438,0-3.542-1-5-1c-1.148,0-2.692,0.614-4,0.877V28.9c0.574-0.103,1.17-0.271,1.754-0.435C3.566,28.237,4.406,28,5,28   s1.434,0.237,2.246,0.465C8.18,28.728,9.146,29,10,29s1.82-0.272,2.754-0.535C13.566,28.237,14.406,28,15,28   s1.434,0.237,2.246,0.465C18.18,28.728,19.146,29,20,29s1.82-0.272,2.754-0.535C23.566,28.237,24.406,28,25,28   s1.434,0.237,2.246,0.465C28.18,28.728,29.146,29,30,29s1.82-0.272,2.754-0.535C33.566,28.237,34.406,28,35,28   s1.434,0.237,2.246,0.465C37.83,28.63,38.426,28.797,39,28.9v-1.023C37.692,27.614,36.148,27,35,27z"/>
</g>
</svg>
