<?xml version="1.0" standalone="no"?>
<!DOCTYPE svg PUBLIC "-//W3C//DTD SVG 20010904//EN"
 "http://www.w3.org/TR/2001/REC-SVG-20010904/DTD/svg10.dtd">
<svg version="1.0" xmlns="http://www.w3.org/2000/svg"
 width="930.000000pt" height="600.000000pt" viewBox="0 0 930.000000 600.000000"
 preserveAspectRatio="xMidYMid meet">
<metadata>
Created by potrace 1.15, written by Peter Selinger 2001-2017
</metadata>
<g transform="translate(0.000000,600.000000) scale(0.100000,-0.100000)"
fill="#000000" stroke="none">
<path d="M480 3480 l0 -320 160 0 160 0 0 -160 0 -160 160 0 160 0 0 -160 0
-160 160 0 160 0 0 -160 0 -160 1120 0 1120 0 0 160 0 160 160 0 160 0 0 160
0 160 160 0 160 0 0 320 0 320 320 0 320 0 0 -320 0 -320 160 0 160 0 0 -160
0 -160 160 0 160 0 0 -160 0 -160 1120 0 1120 0 0 160 0 160 160 0 160 0 0
160 0 160 160 0 160 0 0 160 0 160 160 0 160 0 0 320 0 320 -4160 0 -4160 0 0
-320z m960 -160 l0 -160 160 0 160 0 0 160 0 160 160 0 160 0 0 -160 0 -160
160 0 160 0 0 -160 0 -160 160 0 160 0 0 -160 0 -160 -160 0 -160 0 0 160 0
160 -160 0 -160 0 0 -160 0 -160 -160 0 -160 0 0 160 0 160 -160 0 -160 0 0
160 0 160 -160 0 -160 0 0 160 0 160 160 0 160 0 0 -160z m4520 0 l0 -160 160
0 160 0 0 160 0 160 160 0 160 0 0 -160 0 -160 160 0 160 0 0 -160 0 -160 160
0 160 0 0 -160 0 -160 -160 0 -160 0 0 160 0 160 -160 0 -160 0 0 -160 0 -160
-160 0 -160 0 0 160 0 160 -160 0 -160 0 0 160 0 160 -160 0 -160 0 0 160 0
160 160 0 160 0 0 -160z"/>
<path d="M1760 3000 l0 -160 160 0 160 0 0 160 0 160 -160 0 -160 0 0 -160z"/>
<path d="M6280 3000 l0 -160 160 0 160 0 0 160 0 160 -160 0 -160 0 0 -160z"/>
</g>
</svg>
